<?xml version="1.0" encoding="UTF-8"?>
<svg xmlns="http://www.w3.org/2000/svg" version="1.1" viewBox="0 0 501.1 131.7">
  <defs>
    <style>
      .cls-1 {
        fill: #4a596c;
      }
    </style>
  </defs>
  <!-- Generator: Adobe Illustrator 28.6.0, SVG Export Plug-In . SVG Version: 1.2.0 Build 709)  -->
  <g>
    <g id="Layer_1">
      <path class="cls-1" d="M467.2,2c.6,20.8,11.4,31.6,31.9,32.2v63.2c-20.5.6-31.3,11.5-31.9,32.2H33.7c-.6-21-11-31.6-31.7-32.2v-63.2c20.7-.6,31.1-11.2,31.7-32.3h433.5M468.2,0h-217.8,0H32.7c-.5,0-1,.4-1,1-.3,22.5-11.9,31.1-30.8,31.3-.5,0-1,.4-1,1v65.2c0,.5.4,1,1,1,18.9.3,30.4,8.8,30.8,31.2,0,.5.4,1,1,1h435.5c.5,0,1-.4,1-1,.3-22.5,12.1-31,30.9-31.3.5,0,1-.4,1-1V33.3c0-.5-.4-1-1-1-18.9-.3-30.6-8.8-30.9-31.3,0-.5-.4-1-1-1h0ZM250.5,131.7h0,0Z"/>
      <path class="cls-1" d="M462.7,7.5c1,16.8,14.4,30.3,31.2,31.3v54.3c-16.7,1-30.2,14.4-31.2,31.2H38.4c-1-16.7-14.4-30.2-31.2-31.2v-54.4c16.7-1,30.2-14.4,31.2-31.2h424.2M463.6,5.5H37.5c-.6,0-1,.4-1,1-.5,16.4-13.8,29.7-30.2,30.2-.6,0-1,.5-1,1v56.3c0,.6.4,1,1,1,16.4.5,29.7,13.8,30.2,30.2,0,.6.5,1,1,1h426.1c.6,0,1-.4,1-1,.5-16.4,13.8-29.7,30.2-30.2.6,0,1-.5,1-1v-56.2c0-.6-.4-1-1-1-16.4-.5-29.7-13.9-30.2-30.3,0-.6-.5-1-1-1h0Z"/>
      <g>
        <g>
          <path class="cls-1" d="M52.5,56.6v-9.8c0-6.6,0-10.5-.1-11.8-.1-1.8-.9-2.8-2.4-3.2-.5-.1-1.2-.2-2.2-.2s-.9-.2-.9-.5.4-.5,1.2-.5,2.6,0,4.5,0c1.9,0,3.1,0,3.5,0,.7,0,2,0,3.9,0,1.9,0,3.2,0,4.1,0,4.7,0,8.1,1.1,10.3,3.2,1.8,1.7,2.8,3.9,2.8,6.6,0,3.9-1.3,7.1-3.9,9.7-2.6,2.5-5.8,3.8-9.8,3.8s-1,0-1.2,0c-.4,0-.7-.2-.7-.5,0-.4.5-.6,1.6-.6,1.7,0,3.4-.8,4.9-2.4,1.7-1.8,2.6-4.1,2.6-6.7s-1.1-6.4-3.3-8.3c-1.6-1.4-3.4-2.2-5.6-2.2s-1.7,0-2.1.2c-.4.1-.5.5-.5,1.1v22.2c0,6.3,0,10.2.3,11.9.2,1.8.9,2.8,2.2,3,1.1.1,2,.2,2.8.2s.9.1.9.4-.4.6-1.1.6c-1.4,0-3.1,0-5.1,0-2,0-3.2,0-3.5,0s-1.4,0-3.1,0c-1.8,0-3,0-3.9,0s-1.1-.2-1.1-.6.4-.4,1.2-.5c.6,0,1.1-.1,1.7-.2.9-.2,1.4-1.2,1.6-3.1.2-1.4.3-5.4.3-11.8Z"/>
          <path class="cls-1" d="M97,48.4h21.2c.2,0,.3-.1.3-.4v-1.2c0-6.6,0-10.5-.1-11.8-.1-1.8-.9-2.8-2.4-3.2-.5-.1-1.2-.2-2.2-.2s-.9-.2-.9-.5.4-.5,1.2-.5c1.1,0,2.6,0,4.6,0,1.9,0,3.1,0,3.4,0s1.4,0,3.2,0c1.8,0,3,0,3.8,0s1.2.2,1.2.5-.3.5-1,.5-1,0-1.6.2c-1.3.2-1.9,1.3-2.1,3.2,0,1.2-.1,5.1-.1,11.8v9.8c0,6.3,0,10.2.3,11.9.2,1.8.9,2.8,2.2,3,1.1.1,2,.2,2.8.2s.9.1.9.4-.4.6-1.1.6c-1.4,0-3.1,0-5.1,0-2,0-3.2,0-3.6,0s-1.4,0-3.1,0c-1.7,0-3,0-3.8,0s-1.2-.2-1.2-.6.4-.4,1.2-.5c.6,0,1.1-.1,1.7-.2.9-.2,1.4-1.2,1.6-3.1.2-1.4.3-5.4.3-11.8v-4.9c0-.2-.1-.3-.3-.3h-21.2c-.2,0-.3.1-.3.3v4.9c0,6.3,0,10.2.3,11.9.2,1.8.9,2.8,2.2,3,1.1.1,2,.2,2.8.2s.9.1.9.4-.4.6-1.1.6c-1.4,0-3.1,0-5.1,0-2,0-3.2,0-3.6,0s-1.4,0-3.1,0c-1.8,0-3,0-3.9,0s-1.1-.2-1.1-.6.4-.4,1.2-.5c.6,0,1.1-.1,1.7-.2.9-.2,1.4-1.2,1.6-3.1.2-1.4.3-5.4.3-11.8v-9.8c0-6.6,0-10.5-.1-11.8-.1-1.8-.9-2.8-2.4-3.2-.5-.1-1.2-.2-2.2-.2s-.9-.2-.9-.5.4-.5,1.2-.5c1.1,0,2.6,0,4.6,0,1.9,0,3.1,0,3.4,0s1.4,0,3.2,0c1.8,0,3,0,3.8,0s1.2.2,1.2.5-.3.5-1,.5-1,0-1.6.2c-1.3.2-1.9,1.3-2.1,3.2,0,1.2-.1,5.1-.1,11.8v1.2c0,.3.1.4.3.4Z"/>
          <path class="cls-1" d="M143.4,56.6v-9.8c0-6.6,0-10.5-.1-11.8-.1-1.8-.7-2.8-1.9-3.1-.6-.1-1.3-.2-1.9-.2s-1-.2-1-.6.4-.4,1.3-.4,2,0,3.8,0c1.8,0,2.9,0,3.4,0s1.4,0,3.1,0c1.7,0,2.9,0,3.7,0s1.2.1,1.2.4-.3.6-.8.6-1.1,0-1.7.2c-1.2.2-1.9,1.3-2,3.2,0,1.2-.1,5.1-.1,11.8v9.8c0,6.6,0,10.7.2,12.2.1,1.6.9,2.5,2.2,2.7,1.1.1,2,.2,2.8.2s.9.1.9.4-.4.6-1.1.6c-1.4,0-3.1,0-5.1,0-2,0-3.2,0-3.5,0s-1.4,0-3.1,0c-1.8,0-3,0-3.9,0s-1.1-.2-1.1-.6.4-.4,1.2-.5c.6,0,1.1-.1,1.7-.2.9-.2,1.4-1.1,1.6-2.7.2-1.6.3-5.7.3-12.1Z"/>
          <path class="cls-1" d="M175.6,46.8v9.8c0,4.2,0,6.9.2,8.3.1,2,.5,3.2,1,3.7.9.8,3.2,1.2,6.7,1.2s5.5-.5,6.5-1.6c.8-.9,1.3-2,1.4-3.3,0-.6.3-.8.6-.8s.4.3.4.9c0,2.2-.3,4.3-.8,6.4-.2.8-.7,1.2-1.3,1.4-.3,0-1,.1-2.2.1-3,0-6.1,0-9.4-.2-3.3-.1-5.5-.2-6.8-.2s-1.4,0-3.1,0c-1.8,0-3,0-3.9,0s-1.1-.2-1.1-.6.4-.4,1.2-.5c.6,0,1.1-.1,1.7-.2.9-.2,1.4-1.2,1.6-3.1.2-1.4.3-5.4.3-11.8v-9.8c0-6.6,0-10.5-.1-11.8,0-1.4-.5-2.3-1.2-2.8-.6-.4-1.6-.6-3-.6s-.9-.2-.9-.5.4-.5,1.2-.5,2.4,0,4.2,0c1.8,0,3,0,3.4,0s1.5,0,3.5,0c1.9,0,3.3,0,4.1,0s1.2.2,1.2.5-.3.5-1,.5-1.5,0-2.2.2c-1.3.2-1.9,1.3-2.1,3.2,0,1.2-.1,5.1-.1,11.8Z"/>
          <path class="cls-1" d="M211.5,46.8v9.8c0,4.2,0,6.9.2,8.3.1,2,.5,3.2,1,3.7.9.8,3.2,1.2,6.7,1.2s5.5-.5,6.5-1.6c.8-.9,1.3-2,1.4-3.3,0-.6.3-.8.6-.8s.4.3.4.9c0,2.2-.3,4.3-.8,6.4-.2.8-.7,1.2-1.3,1.4-.3,0-1,.1-2.2.1-3,0-6.1,0-9.4-.2-3.3-.1-5.5-.2-6.8-.2s-1.4,0-3.1,0c-1.8,0-3,0-3.9,0s-1.1-.2-1.1-.6.4-.4,1.2-.5c.6,0,1.1-.1,1.7-.2.9-.2,1.4-1.2,1.6-3.1.2-1.4.3-5.4.3-11.8v-9.8c0-6.6,0-10.5-.1-11.8,0-1.4-.5-2.3-1.2-2.8-.6-.4-1.6-.6-3-.6s-.9-.2-.9-.5.4-.5,1.2-.5,2.4,0,4.2,0c1.8,0,3,0,3.4,0s1.5,0,3.5,0c1.9,0,3.3,0,4.1,0s1.2.2,1.2.5-.3.5-1,.5-1.5,0-2.2.2c-1.3.2-1.9,1.3-2.1,3.2,0,1.2-.1,5.1-.1,11.8Z"/>
          <path class="cls-1" d="M240.2,56.6v-9.8c0-6.6,0-10.5-.1-11.8-.1-1.8-.7-2.8-1.9-3.1-.6-.1-1.3-.2-1.9-.2s-1-.2-1-.6.4-.4,1.3-.4,2,0,3.8,0c1.8,0,2.9,0,3.4,0s1.4,0,3.1,0c1.7,0,2.9,0,3.7,0s1.2.1,1.2.4-.3.6-.8.6-1.1,0-1.7.2c-1.2.2-1.9,1.3-2,3.2,0,1.2-.1,5.1-.1,11.8v9.8c0,6.6,0,10.7.2,12.2.1,1.6.9,2.5,2.2,2.7,1.1.1,2,.2,2.8.2s.9.1.9.4-.4.6-1.1.6c-1.4,0-3.1,0-5.1,0-2,0-3.2,0-3.5,0s-1.4,0-3.1,0c-1.8,0-3,0-3.9,0s-1.1-.2-1.1-.6.4-.4,1.2-.5c.6,0,1.1-.1,1.7-.2.9-.2,1.4-1.1,1.6-2.7.2-1.6.3-5.7.3-12.1Z"/>
          <path class="cls-1" d="M265.7,56.6v-9.8c0-6.6,0-10.5-.1-11.8-.1-1.8-.9-2.8-2.4-3.2-.5-.1-1.2-.2-2.2-.2s-.9-.2-.9-.5.4-.5,1.2-.5,2.6,0,4.5,0c1.9,0,3.1,0,3.5,0,.7,0,2,0,3.9,0,1.9,0,3.2,0,4.1,0,4.7,0,8.1,1.1,10.3,3.2,1.9,1.7,2.8,3.9,2.8,6.6,0,3.9-1.3,7.1-3.9,9.7-2.6,2.5-5.8,3.8-9.8,3.8s-1,0-1.2,0c-.4,0-.7-.2-.7-.5,0-.4.5-.6,1.6-.6,1.7,0,3.4-.8,4.9-2.4,1.7-1.8,2.6-4.1,2.6-6.7s-1.1-6.4-3.3-8.3c-1.6-1.4-3.4-2.2-5.6-2.2s-1.7,0-2.1.2c-.4.1-.5.5-.5,1.1v22.2c0,6.3,0,10.2.3,11.9.2,1.8.9,2.8,2.2,3,1.1.1,2,.2,2.8.2s.9.1.9.4-.4.6-1.1.6c-1.4,0-3.1,0-5.1,0-2,0-3.2,0-3.5,0s-1.4,0-3.1,0c-1.8,0-3,0-3.9,0s-1.1-.2-1.1-.6.4-.4,1.2-.5c.6,0,1.1-.1,1.7-.2.9-.2,1.4-1.2,1.6-3.1.2-1.4.3-5.4.3-11.8Z"/>
          <path class="cls-1" d="M306.5,73.5c-3.2,0-5.9-.5-8.1-1.4-.7-.3-1.1-.9-1.1-1.9,0-2,0-4.4.3-7.3,0-1,.3-1.4.7-1.4s.6.3.6.9.2,1.7.5,2.8c1.1,3.7,3.8,5.6,7.9,5.6s4.2-.7,5.6-2.1c1.2-1.2,1.8-2.6,1.8-4.3,0-3.1-1.8-6-5.4-8.9l-2.6-2c-5.5-4.3-8.2-8.7-8.2-13.2s1.2-5.6,3.6-7.5c2.4-2,5.5-2.9,9.3-2.9s4.9.3,7.4.9c.5.1.8.4.8.7,0,0,0,.6-.1,2,0,1.4-.1,3-.1,4.7s-.2,1.7-.6,1.7-.6-.3-.6-1c0-1.2-.5-2.4-1.4-3.7-1.4-1.8-3.5-2.7-6.1-2.7s-3.6.5-4.8,1.6c-1.2,1.1-1.8,2.4-1.8,4.1s.4,2.5,1.2,3.7c.8,1.2,2.4,2.6,4.6,4.3l1.6,1.2c3.3,2.5,5.7,4.8,7,7,1.4,2.1,2.1,4.5,2.1,7.2,0,4.2-1.7,7.4-5.2,9.7-2.3,1.5-5.3,2.3-8.8,2.3Z"/>
        </g>
        <g>
          <path class="cls-1" d="M347,56.6v-9.8c0-6.6,0-10.5-.1-11.8-.1-1.8-.9-2.8-2.4-3.2-.5-.1-1.2-.2-2.2-.2s-.9-.2-.9-.5.4-.5,1.2-.5,2.6,0,4.5,0c1.9,0,3.1,0,3.5,0,8.8,0,13.4,0,13.9,0,1,0,1.8-.2,2.4-.3.6-.1.9-.2.9-.2.2,0,.3.2.3.5s0,.4-.2,1c-.1.7-.2,1.6-.2,2.6,0,1-.2,2.2-.3,3.7,0,.4-.3.6-.6.6s-.4-.2-.5-.6c0-.4-.1-.8-.1-1.2,0-.4-.1-.7-.2-1-.4-1.1-1.7-1.7-3.7-2-1.3-.1-3.9-.2-7.9-.2s-.4.2-.4.6v14c0,.4.1.6.4.6,5.1,0,8.1,0,8.9-.1.6,0,1.1,0,1.4-.2.6-.1,1-.4,1.2-.7.4-.5.7-.7.9-.7.3,0,.4.1.4.4s0,.4-.2,1.1c-.1.9-.2,1.8-.3,2.9-.1,2.1-.2,3.3-.2,3.7,0,.7-.2,1.1-.5,1.1s-.5-.2-.5-.6,0-1-.2-1.9c-.3-1.3-1.3-2-3.1-2.2-1-.1-3.7-.2-7.9-.2s-.3.2-.3.6v13c0,2,.5,3.2,1.3,3.8.8.6,2.6.9,5.4.9s4.3-.2,5.2-.7c1.3-.6,2.1-2,2.5-4.1.1-.6.3-.8.6-.8s.4.3.4,1c0,2.3-.2,4.3-.7,6.2-.2.7-.4,1.1-.8,1.2-.3.1-1.1.2-2.2.2-3.2,0-6.4,0-9.6-.2-3.2-.1-5.1-.2-5.8-.2s-1.4,0-3.1,0c-1.8,0-3,0-3.9,0s-1.1-.2-1.1-.6.4-.4,1.2-.5c.6,0,1.1-.1,1.7-.2.9-.2,1.4-1.2,1.6-3.1.2-1.4.3-5.4.3-11.8Z"/>
          <path class="cls-1" d="M394.3,62.9v-4.6c0-2-.4-3.9-1.3-5.8-.2-.4-1.7-2.9-4.4-7.3-2.7-4.4-4.5-7.3-5.4-8.7-1.4-2-2.6-3.4-3.8-4.1-.9-.5-1.6-.7-2.3-.7s-.8-.2-.8-.5.4-.5,1.1-.5,1.3,0,3.2,0c1.9,0,3.1,0,3.8,0s1.1,0,2.5,0c1.4,0,2.5,0,3.4,0s.8.2.8.5-.4.4-1.2.6c-.5.1-.8.4-.8,1s.2,1,.7,1.9c.1.3,3.3,5.9,9.4,16.6,2.5-4.5,5.3-9.6,8.3-15.3.5-1.1.8-2.1.8-2.9s-.4-1.2-1.1-1.4c-.7-.2-1.1-.4-1.1-.6,0-.3.3-.5.9-.5s1.5,0,2.7,0c1.2,0,2,0,2.5,0s1.4,0,3,0c1.6,0,2.6,0,2.9,0,.7,0,1,.1,1,.4s-.4.6-1.1.6-1.5.2-2.4.7c-.9.4-1.9,1.4-3,2.7-.9,1.1-2.8,4-5.6,8.7-2.8,4.7-4.5,7.7-5,8.9-.6,1.3-.8,3.2-.8,5.5v4.6c0,3.3,0,5.4.3,6.3.2,1.4,1,2.1,2.2,2.3,1.1.1,2,.2,2.8.2s.9.1.9.4-.4.6-1.2.6c-1.3,0-3,0-5,0-2,0-3.2,0-3.5,0s-1.5,0-3.2,0c-1.7,0-3,0-3.7,0s-1.2-.2-1.2-.6.4-.4,1.2-.5c.5,0,1.1-.1,1.6-.2,1-.2,1.6-1.2,1.7-3.1.1-1.6.2-3.4.2-5.6Z"/>
          <path class="cls-1" d="M431.7,56.6v-9.8c0-6.6,0-10.5-.1-11.8-.1-1.8-.9-2.8-2.4-3.2-.5-.1-1.2-.2-2.2-.2s-.9-.2-.9-.5.4-.5,1.2-.5,2.6,0,4.5,0c1.9,0,3.1,0,3.5,0,8.8,0,13.4,0,13.9,0,1,0,1.8-.2,2.4-.3.6-.1.9-.2.9-.2.2,0,.3.2.3.5s0,.4-.2,1c-.1.7-.2,1.6-.2,2.6,0,1-.2,2.2-.3,3.7,0,.4-.3.6-.6.6s-.4-.2-.5-.6c0-.4-.1-.8-.1-1.2,0-.4-.1-.7-.2-1-.4-1.1-1.7-1.7-3.7-2-1.3-.1-3.9-.2-7.9-.2s-.4.2-.4.6v14c0,.4.1.6.4.6,5.1,0,8.1,0,8.9-.1.6,0,1.1,0,1.4-.2.6-.1,1-.4,1.2-.7.4-.5.7-.7.9-.7.3,0,.4.1.4.4s0,.4-.2,1.1c-.1.9-.2,1.8-.3,2.9-.1,2.1-.2,3.3-.2,3.7,0,.7-.2,1.1-.5,1.1s-.5-.2-.5-.6,0-1-.2-1.9c-.3-1.3-1.3-2-3.1-2.2-1-.1-3.7-.2-7.9-.2s-.3.2-.3.6v13c0,2,.5,3.2,1.3,3.8.8.6,2.6.9,5.4.9s4.3-.2,5.2-.7c1.3-.6,2.1-2,2.5-4.1.1-.6.3-.8.6-.8s.4.3.4,1c0,2.3-.2,4.3-.7,6.2-.2.7-.4,1.1-.8,1.2-.3.1-1.1.2-2.2.2-3.2,0-6.4,0-9.6-.2-3.2-.1-5.1-.2-5.8-.2s-1.4,0-3.1,0c-1.8,0-3,0-3.9,0s-1.1-.2-1.1-.6.4-.4,1.2-.5c.6,0,1.1-.1,1.7-.2.9-.2,1.4-1.2,1.6-3.1.2-1.4.3-5.4.3-11.8Z"/>
        </g>
      </g>
      <g>
        <path class="cls-1" d="M110.7,98.4v-3.5c0-2.4,0-3.8,0-4.3,0-.6-.3-1-.9-1.1-.2,0-.4,0-.8,0s-.3,0-.3-.2.1-.2.4-.2,1,0,1.6,0c.7,0,1,0,1.1,0,.3,0,.8,0,1.3,0,.5,0,.9,0,1.1,0,1.6,0,2.8.4,3.5,1.1.5.5.8,1.2.8,1.9,0,1.2-.7,2.4-2.1,3.5,1,.3,1.8.8,2.5,1.5.8.8,1.2,1.8,1.2,2.8s-.4,2.2-1.3,3c-1,.9-2.4,1.4-4.1,1.4s-.6,0-1.4,0c-.8,0-1.3,0-1.5,0s-.5,0-1.1,0c-.6,0-1.1,0-1.4,0s-.4,0-.4-.2.1-.2.4-.2c.2,0,.4,0,.6,0,.3,0,.5-.4.6-1.1,0-.5.1-2,.1-4.3ZM113.1,90.2v5c0,.1,0,.2.1.2.2,0,.5,0,.9,0,.7,0,1.1-.1,1.4-.4.5-.5.8-1.2.8-2.1s-.2-1.5-.6-2.1c-.5-.7-1.1-1-1.9-1s-.7,0-.8,0c0,0,0,.2,0,.3ZM117.7,100.8c0-1.8-.7-3.1-2-4-.4-.3-1-.4-1.7-.5-.3,0-.5,0-.9,0s-.1,0-.1.1v4.8c0,.7,0,1.2.1,1.4,0,.3.3.4.6.6.4.2.9.2,1.5.2s1.1-.2,1.6-.5c.6-.5.9-1.1.9-2.1Z"/>
        <path class="cls-1" d="M124.9,98.4v-3.5c0-2.4,0-3.8,0-4.3,0-.6-.3-1-.9-1.1-.2,0-.5,0-.8,0s-.3,0-.3-.2.1-.2.4-.2,1,0,1.6,0c.7,0,1,0,1.1,0,.2,0,.7,0,1.4,0,.7,0,1.2,0,1.4,0,1.6,0,2.9.3,3.7.9.3.2.6.6.9,1,.3.5.5,1.1.5,1.7,0,1.6-.9,3.1-2.7,4.5,1.5,1.9,2.3,2.9,2.4,3,.8,1,1.4,1.7,2,2.3.7.8,1.5,1.2,2.3,1.4.2,0,.3,0,.5,0,.2,0,.3,0,.3.2,0,.1-.1.2-.4.2h-1.9c-1,0-1.7-.1-2.2-.4-.7-.3-1.6-1.3-2.8-3-.6-.8-1.2-1.7-2-2.8,0,0-.2-.1-.4-.1h-1.8c-.1,0-.2,0-.2.2v.3c0,2.3,0,3.7.1,4.3,0,.7.3,1,.8,1.1.4,0,.7,0,1,0s.2,0,.2.2-.1.2-.4.2c-.5,0-1.1,0-1.8,0-.7,0-1.1,0-1.2,0,0,0-.4,0-1.1,0-.6,0-1.1,0-1.4,0s-.4,0-.4-.2.1-.2.4-.2c.2,0,.4,0,.6,0,.3,0,.5-.4.6-1.1,0-.5,0-2,0-4.3ZM127.3,90.3v6.1c0,.2,0,.3.2.4.4.1.9.2,1.5.2s1.1-.1,1.4-.3c.8-.6,1.2-1.6,1.2-3s-.4-2.2-1.1-2.9c-.6-.5-1.2-.8-2-.8s-1,0-1.1.1c0,0-.1.1-.1.2Z"/>
        <path class="cls-1" d="M145.4,98.9h-4.5c0,0-.1,0-.2.2l-1.1,2.9c-.2.5-.3.9-.3,1.2,0,.4.3.6.8.6h.3c.2,0,.3,0,.3.2s-.1.2-.3.2-.6,0-1.1,0c-.5,0-.9,0-1.1,0-1.2,0-2,0-2.4,0s-.4,0-.4-.2,0-.2.2-.2.4,0,.6,0c.4,0,.8-.2,1-.6.2-.3.4-.7.7-1.2l5.1-12.6c.2-.5.4-.8.6-.8s.3.2.5.6c1.2,3.1,2.9,7.2,5,12.4.6,1.3,1.2,2.1,1.8,2.2.2,0,.5,0,.8,0s.3,0,.3.2,0,.1-.2.2c-.1,0-.4,0-.7,0-1.7,0-2.9,0-3.8,0-.4,0-.6,0-.6-.2s0-.2.3-.2c.2,0,.3-.2.2-.5l-1.6-4.3c0,0-.1-.1-.2-.1ZM141.3,97.9h3.7c0,0,.1,0,0-.1l-1.8-5c0-.1,0-.2-.1-.2s0,0-.1.2l-1.9,5c0,0,0,.1,0,.1Z"/>
        <path class="cls-1" d="M155.1,93l.2,8.5c0,1.3.3,2.1.7,2.2,0,0,.3,0,.8,0,.4,0,.6.1.6.2,0,.1-.2.2-.5.2-.5,0-1,0-1.6,0-.6,0-.9,0-.9,0,0,0-.2,0-.8,0-.5,0-1,0-1.4,0s-.4,0-.4-.2.2-.2.5-.2c.2,0,.5,0,.7,0,.3,0,.4-.3.5-.6,0-.3.1-.9.1-1.9l.2-11.9c0-.5.1-.7.3-.7s.4.2.7.6c1.1,1.2,3.2,3.3,6.2,6.5,1.4,1.4,2.8,3,4.4,4.6h.1l-.2-9c0-.5,0-.8,0-1-.1-.4-.3-.7-.6-.8-.2,0-.6-.1-1.1-.1s-.3,0-.3-.2.2-.2.5-.2.9,0,1.4,0c.6,0,.9,0,1,0s.2,0,.7,0c.5,0,.9,0,1.3,0s.5,0,.5.2-.1.2-.4.2c-.7,0-1.1.2-1.2.7,0,.2-.1.6-.1,1.1l-.2,12.7c0,.4-.1.6-.3.6s-.4-.1-.7-.4c-1.3-1.3-3.3-3.2-5.9-5.9-.9-.9-1.9-2-3.1-3.2-.6-.6-1.1-1.3-1.7-1.9h0Z"/>
        <path class="cls-1" d="M173.2,98.4v-3.5c0-2.4,0-3.8,0-4.3,0-.6-.3-1-.9-1.1-.2,0-.4,0-.8,0s-.3,0-.3-.2.1-.2.4-.2,1,0,1.6,0c.7,0,1.1,0,1.3,0s.6,0,1.3,0c.7,0,1.3,0,1.8,0,1.8,0,3.2,0,4.1.3,1.6.3,3,1,3.9,2,1.3,1.4,2,3.1,2,5.1s-.7,4.1-2.2,5.6c-1.6,1.6-3.8,2.4-6.7,2.4s-1.3,0-2.3-.1-1.7-.1-2-.1-.5,0-1.1,0c-.6,0-1.1,0-1.4,0s-.4,0-.4-.2.1-.2.4-.2c.2,0,.4,0,.6,0,.3,0,.5-.4.6-1.1,0-.5,0-2,0-4.3ZM175.8,94.5v2.5c0,2.1,0,3.5,0,4.1,0,.9.1,1.4.2,1.5.4.5,1.3.8,2.6.8,2,0,3.5-.5,4.6-1.4s1.7-2.6,1.7-5-.6-3.8-1.9-5c-1.4-1.3-3.3-2-5.7-2s-1.1,0-1.3.1c-.2,0-.3.2-.3.4,0,.6,0,1.9,0,4Z"/>
        <path class="cls-1" d="M198,104.5c-2.7,0-4.7-.9-6.2-2.6-1.3-1.5-1.9-3.2-1.9-5.3s.6-3.8,1.9-5.2c1.5-1.8,3.7-2.7,6.4-2.7s4.5.7,5.9,2c1.5,1.4,2.2,3.2,2.2,5.5s-.8,4.3-2.3,5.9c-1.5,1.6-3.6,2.4-6.1,2.4ZM198.9,103.5c1.1,0,2.1-.4,2.9-1.1,1.2-1.1,1.8-2.9,1.8-5.4s-.6-4-1.7-5.4c-1.1-1.3-2.5-2-4.2-2s-2.5.4-3.3,1.3-1.6,2.8-1.6,5,.5,3.9,1.6,5.3c1.1,1.5,2.7,2.2,4.5,2.2Z"/>
        <path class="cls-1" d="M211.7,93l.2,8.5c0,1.3.3,2.1.7,2.2,0,0,.3,0,.8,0,.4,0,.6.1.6.2,0,.1-.2.2-.5.2-.5,0-1,0-1.6,0-.6,0-.9,0-.9,0,0,0-.2,0-.8,0-.5,0-1,0-1.4,0s-.4,0-.4-.2.2-.2.5-.2c.2,0,.5,0,.7,0,.3,0,.4-.3.5-.6,0-.3.1-.9.1-1.9l.2-11.9c0-.5,0-.7.3-.7s.4.2.7.6c1.1,1.2,3.2,3.3,6.2,6.5,1.4,1.4,2.8,3,4.4,4.6h0l-.2-9c0-.5,0-.8,0-1-.1-.4-.3-.7-.6-.8-.2,0-.6-.1-1.1-.1s-.3,0-.3-.2.2-.2.5-.2.9,0,1.4,0c.6,0,.9,0,1,0s.2,0,.7,0c.5,0,.9,0,1.3,0s.5,0,.5.2-.1.2-.4.2c-.7,0-1.1.2-1.2.7,0,.2-.1.6-.1,1.1l-.2,12.7c0,.4,0,.6-.3.6s-.4-.1-.7-.4c-1.3-1.3-3.3-3.2-5.9-5.9-.9-.9-1.9-2-3.1-3.2-.6-.6-1.1-1.3-1.7-1.9h0Z"/>
        <path class="cls-1" d="M235.9,98.4v-3.5c0-2.4,0-3.8,0-4.3,0-.6-.3-1-.9-1.1-.2,0-.4,0-.8,0s-.3,0-.3-.2.1-.2.4-.2,1,0,1.6,0c.7,0,1.1,0,1.3,0,.3,0,.7,0,1.4,0,.7,0,1.2,0,1.5,0,1.7,0,2.9.4,3.7,1.1.7.6,1,1.4,1,2.4,0,1.4-.5,2.6-1.4,3.5-.9.9-2.1,1.4-3.6,1.4s-.4,0-.4,0c-.2,0-.2,0-.2-.2,0-.1.2-.2.6-.2.6,0,1.2-.3,1.8-.9.6-.7.9-1.5.9-2.4s-.4-2.3-1.2-3c-.6-.5-1.2-.8-2-.8s-.6,0-.8,0c-.1,0-.2.2-.2.4v8.1c0,2.3,0,3.7,0,4.3,0,.7.3,1,.8,1.1.4,0,.7,0,1,0s.3,0,.3.2-.1.2-.4.2c-.5,0-1.1,0-1.9,0-.7,0-1.2,0-1.3,0s-.5,0-1.1,0c-.6,0-1.1,0-1.4,0s-.4,0-.4-.2.1-.2.4-.2c.2,0,.4,0,.6,0,.3,0,.5-.4.6-1.1,0-.5,0-2,0-4.3Z"/>
        <path class="cls-1" d="M251.7,95.4h7.7c0,0,.1,0,.1-.1v-.4c0-2.4,0-3.8,0-4.3,0-.6-.3-1-.9-1.1-.2,0-.5,0-.8,0s-.3,0-.3-.2.1-.2.4-.2c.4,0,1,0,1.6,0,.7,0,1.1,0,1.2,0s.5,0,1.2,0c.6,0,1.1,0,1.4,0s.4,0,.4.2-.1.2-.4.2-.4,0-.6,0c-.5,0-.7.5-.7,1.1,0,.4,0,1.9,0,4.3v3.5c0,2.3,0,3.7,0,4.3,0,.7.3,1,.8,1.1.4,0,.7,0,1,0s.3,0,.3.2-.1.2-.4.2c-.5,0-1.1,0-1.9,0-.7,0-1.2,0-1.3,0s-.5,0-1.1,0c-.6,0-1.1,0-1.4,0s-.4,0-.4-.2.1-.2.4-.2c.2,0,.4,0,.6,0,.3,0,.5-.4.6-1.1,0-.5.1-2,.1-4.3v-1.8c0,0,0-.1-.1-.1h-7.7c0,0-.1,0-.1.1v1.8c0,2.3,0,3.7.1,4.3,0,.7.3,1,.8,1.1.4,0,.7,0,1,0s.3,0,.3.2-.1.2-.4.2c-.5,0-1.1,0-1.9,0-.7,0-1.2,0-1.3,0s-.5,0-1.1,0c-.6,0-1.1,0-1.4,0s-.4,0-.4-.2.1-.2.4-.2c.2,0,.4,0,.6,0,.3,0,.5-.4.6-1.1,0-.5,0-2,0-4.3v-3.5c0-2.4,0-3.8,0-4.3,0-.6-.3-1-.9-1.1-.2,0-.4,0-.8,0s-.3,0-.3-.2.1-.2.4-.2c.4,0,1,0,1.7,0,.7,0,1.1,0,1.2,0s.5,0,1.2,0c.6,0,1.1,0,1.4,0s.4,0,.4.2-.1.2-.4.2-.4,0-.6,0c-.5,0-.7.5-.7,1.1,0,.4,0,1.9,0,4.3v.4c0,0,0,.1.1.1Z"/>
        <path class="cls-1" d="M268.6,98.4v-3.5c0-2.4,0-3.8,0-4.3,0-.6-.3-1-.7-1.1-.2,0-.5,0-.7,0s-.4,0-.4-.2.2-.2.5-.2.7,0,1.4,0c.7,0,1.1,0,1.2,0s.5,0,1.1,0c.6,0,1,0,1.3,0s.4,0,.4.2,0,.2-.3.2-.4,0-.6,0c-.5,0-.7.5-.7,1.1,0,.4,0,1.9,0,4.3v3.5c0,2.4,0,3.9,0,4.4,0,.6.3.9.8,1,.4,0,.7,0,1,0s.3,0,.3.2-.1.2-.4.2c-.5,0-1.1,0-1.9,0-.7,0-1.2,0-1.3,0s-.5,0-1.1,0c-.6,0-1.1,0-1.4,0s-.4,0-.4-.2.1-.2.4-.2c.2,0,.4,0,.6,0,.3,0,.5-.4.6-1,0-.6,0-2.1,0-4.4Z"/>
        <path class="cls-1" d="M280.2,94.8v3.5c0,1.5,0,2.5,0,3,0,.7.2,1.2.4,1.3.3.3,1.1.4,2.4.4s2-.2,2.4-.6c.3-.3.5-.7.5-1.2,0-.2.1-.3.2-.3s.2.1.2.3c0,.8-.1,1.6-.3,2.3,0,.3-.2.4-.5.5,0,0-.4,0-.8,0-1.1,0-2.2,0-3.4,0-1.2,0-2,0-2.5,0s-.5,0-1.1,0c-.6,0-1.1,0-1.4,0s-.4,0-.4-.2.1-.2.4-.2c.2,0,.4,0,.6,0,.3,0,.5-.4.6-1.1,0-.5,0-2,0-4.3v-3.5c0-2.4,0-3.8,0-4.3,0-.5-.2-.8-.4-1-.2-.1-.6-.2-1.1-.2s-.3,0-.3-.2.1-.2.4-.2.9,0,1.5,0c.7,0,1.1,0,1.2,0s.6,0,1.3,0c.7,0,1.2,0,1.5,0s.4,0,.4.2-.1.2-.4.2-.6,0-.8,0c-.5,0-.7.5-.7,1.1,0,.4,0,1.9,0,4.3Z"/>
        <path class="cls-1" d="M292.4,94.8v3.5c0,1.5,0,2.5,0,3,0,.7.2,1.2.4,1.3.3.3,1.1.4,2.4.4s2-.2,2.4-.6c.3-.3.5-.7.5-1.2,0-.2.1-.3.2-.3s.2.1.2.3c0,.8-.1,1.6-.3,2.3,0,.3-.2.4-.5.5,0,0-.4,0-.8,0-1.1,0-2.2,0-3.4,0-1.2,0-2,0-2.5,0s-.5,0-1.1,0c-.6,0-1.1,0-1.4,0s-.4,0-.4-.2.1-.2.4-.2c.2,0,.4,0,.6,0,.3,0,.5-.4.6-1.1,0-.5,0-2,0-4.3v-3.5c0-2.4,0-3.8,0-4.3,0-.5-.2-.8-.4-1-.2-.1-.6-.2-1.1-.2s-.3,0-.3-.2.1-.2.4-.2.9,0,1.5,0c.7,0,1.1,0,1.2,0s.6,0,1.3,0c.7,0,1.2,0,1.5,0s.4,0,.4.2-.1.2-.4.2-.6,0-.8,0c-.5,0-.7.5-.7,1.1,0,.4,0,1.9,0,4.3Z"/>
        <path class="cls-1" d="M302.1,98.4v-3.5c0-2.4,0-3.8,0-4.3,0-.6-.3-1-.7-1.1-.2,0-.5,0-.7,0s-.4,0-.4-.2.2-.2.5-.2.7,0,1.4,0c.7,0,1.1,0,1.2,0s.5,0,1.1,0c.6,0,1,0,1.3,0s.4,0,.4.2,0,.2-.3.2-.4,0-.6,0c-.5,0-.7.5-.7,1.1,0,.4,0,1.9,0,4.3v3.5c0,2.4,0,3.9,0,4.4,0,.6.3.9.8,1,.4,0,.7,0,1,0s.3,0,.3.2-.1.2-.4.2c-.5,0-1.1,0-1.9,0-.7,0-1.2,0-1.3,0s-.5,0-1.1,0c-.6,0-1.1,0-1.4,0s-.4,0-.4-.2.1-.2.4-.2c.2,0,.4,0,.6,0,.3,0,.5-.4.6-1,0-.6,0-2.1,0-4.4Z"/>
        <path class="cls-1" d="M311.2,98.4v-3.5c0-2.4,0-3.8,0-4.3,0-.6-.3-1-.9-1.1-.2,0-.4,0-.8,0s-.3,0-.3-.2.1-.2.4-.2,1,0,1.6,0c.7,0,1.1,0,1.3,0,.3,0,.7,0,1.4,0,.7,0,1.2,0,1.5,0,1.7,0,2.9.4,3.7,1.1.7.6,1,1.4,1,2.4,0,1.4-.5,2.6-1.4,3.5-.9.9-2.1,1.4-3.6,1.4s-.4,0-.4,0c-.2,0-.2,0-.2-.2,0-.1.2-.2.6-.2.6,0,1.2-.3,1.8-.9.6-.7.9-1.5.9-2.4s-.4-2.3-1.2-3c-.6-.5-1.2-.8-2-.8s-.6,0-.8,0c-.1,0-.2.2-.2.4v8.1c0,2.3,0,3.7,0,4.3,0,.7.3,1,.8,1.1.4,0,.7,0,1,0s.3,0,.3.2-.1.2-.4.2c-.5,0-1.1,0-1.9,0-.7,0-1.2,0-1.3,0s-.5,0-1.1,0c-.6,0-1.1,0-1.4,0s-.4,0-.4-.2.1-.2.4-.2c.2,0,.4,0,.6,0,.3,0,.5-.4.6-1.1,0-.5,0-2,0-4.3Z"/>
        <path class="cls-1" d="M326.2,104.5c-1.2,0-2.1-.2-2.9-.5-.3-.1-.4-.3-.4-.7,0-.7,0-1.6,0-2.6,0-.3.1-.5.2-.5s.2.1.2.3,0,.6.2,1c.4,1.4,1.4,2,2.9,2s1.5-.2,2-.7c.4-.4.7-1,.7-1.5,0-1.1-.7-2.2-2-3.2l-.9-.7c-2-1.6-3-3.1-3-4.8s.4-2,1.3-2.7c.9-.7,2-1.1,3.4-1.1s1.8.1,2.7.3c.2,0,.3.1.3.2,0,0,0,.2,0,.7,0,.5,0,1.1,0,1.7s0,.6-.2.6-.2-.1-.2-.4c0-.4-.2-.9-.5-1.3-.5-.7-1.3-1-2.2-1s-1.3.2-1.8.6c-.4.4-.6.9-.6,1.5s.2.9.5,1.3.9.9,1.7,1.6l.6.4c1.2.9,2.1,1.8,2.6,2.5.5.8.7,1.6.7,2.6,0,1.5-.6,2.7-1.9,3.5-.8.6-1.9.8-3.2.8Z"/>
        <path class="cls-1" d="M334,102.7c0-.3.2-.7.5-.9s.7-.4,1-.4.3.2.6.6c.3.4.4.7.4,1s0,.6-.3,1c-.5,1.1-1,2-1.6,2.7-.2.2-.3.2-.3.2-.1,0-.2,0-.2-.2,0,0,0,0,.2-.3.4-.7.6-1.3.6-1.8s-.1-.9-.4-1.2c-.3-.3-.4-.5-.4-.6Z"/>
        <path class="cls-1" d="M345.9,102.2l2-13.1c0-.3.2-.5.3-.5s.3.2.5.6l5.5,11.4,5.5-11.5c.1-.3.3-.5.4-.5s.3.2.4.6l1.8,12.4c0,.7.2,1.2.3,1.4.1.3.3.5.6.6.4.1.9.2,1.2.2s.3,0,.3.1c0,.1-.2.2-.5.2-1.7,0-3.1,0-4.1-.1-.4,0-.6,0-.6-.2s0-.2.2-.2.2-.3.1-.9l-1.2-8.9h0l-4.4,9.2c-.4.8-.6,1.1-.7,1.1s-.4-.3-.7-1c-1.3-2.4-2-4-2.3-4.6-.5-1-1.2-2.5-2.1-4.5h0l-1,8c0,.3,0,.6,0,.9s.2.6.6.6c.3,0,.6.1.8.1s.3,0,.3.1c0,.1-.2.2-.5.2s-.7,0-1.2,0c-.5,0-.8,0-.9,0s-.4,0-.9,0c-.5,0-.9,0-1.1,0s-.4,0-.4-.2.1-.1.3-.1.4,0,.6,0c.4,0,.7-.6.8-1.6Z"/>
        <path class="cls-1" d="M367.3,104.1c-.4,0-.7-.1-.9-.4-.2-.2-.3-.5-.3-.8s0-.6.3-.8c.2-.3.6-.4.9-.4s.6.1.9.3c.2.2.4.5.4.8s-.1.7-.3.9c-.2.2-.5.4-.9.4Z"/>
        <path class="cls-1" d="M373.2,98.4v-3.5c0-2.4,0-3.8,0-4.3,0-.6-.3-1-.9-1.1-.2,0-.4,0-.8,0s-.3,0-.3-.2.1-.2.4-.2,1,0,1.6,0c.7,0,1.1,0,1.3,0s.6,0,1.3,0c.7,0,1.3,0,1.8,0,1.8,0,3.2,0,4.1.3,1.6.3,3,1,3.9,2,1.3,1.4,2,3.1,2,5.1s-.7,4.1-2.2,5.6c-1.6,1.6-3.8,2.4-6.7,2.4s-1.3,0-2.3-.1c-1,0-1.7-.1-2-.1s-.5,0-1.1,0c-.6,0-1.1,0-1.4,0s-.4,0-.4-.2.1-.2.4-.2c.2,0,.4,0,.6,0,.3,0,.5-.4.6-1.1,0-.5,0-2,0-4.3ZM375.7,94.5v2.5c0,2.1,0,3.5,0,4.1,0,.9.1,1.4.2,1.5.4.5,1.3.8,2.6.8,2,0,3.5-.5,4.6-1.4s1.7-2.6,1.7-5-.6-3.8-1.9-5c-1.4-1.3-3.3-2-5.7-2s-1.1,0-1.3.1c-.2,0-.3.2-.3.4,0,.6,0,1.9,0,4Z"/>
        <path class="cls-1" d="M391.2,104.1c-.4,0-.7-.1-.9-.4-.2-.2-.3-.5-.3-.8s0-.6.3-.8c.2-.3.6-.4.9-.4s.6.1.9.3c.2.2.4.5.4.8s-.1.7-.3.9c-.2.2-.5.4-.9.4Z"/>
      </g>
    </g>
  </g>
</svg>