<?xml version="1.0" encoding="UTF-8"?>
<svg id="Layer_2" data-name="Layer 2" xmlns="http://www.w3.org/2000/svg" viewBox="0 0 502.09 132.7">
  <defs>
    <style>
      .cls-1 {
        fill: none;
        stroke: #1b1b1b;
        stroke-miterlimit: 10;
      }

      .cls-2 {
        fill: #1b1b1b;
      }
    </style>
  </defs>
  <g id="Layer_1-2" data-name="Layer 1">
    <path class="cls-2" d="m462.24,8.98c1.44,16.54,14.62,29.77,31.11,31.22v52.42c-16.49,1.44-29.67,14.62-31.11,31.11H39.85c-1.44-16.49-14.62-29.67-31.11-31.11v-52.53c16.49-1.44,29.67-14.62,31.11-31.11h422.39m1.88-3H37.98c-.55,0-.99.44-1.01,1-.52,16.4-13.82,29.71-30.23,30.23-.55.02-1,.46-1,1.01v56.28c0,.55.44.99,1,1.01,16.4.52,29.71,13.82,30.23,30.23.02.55.46,1,1.01,1h426.14c.55,0,.99-.44,1.01-1,.52-16.4,13.82-29.71,30.23-30.23.55-.02,1-.46,1-1.01v-56.17c0-.55-.44-.99-.99-1.01-16.4-.52-29.71-13.93-30.23-30.34-.02-.55-.46-1-1.01-1h0Z"/>
    <g>
      <g>
        <path class="cls-2" d="m53.03,57.09v-9.77c0-6.62-.04-10.55-.11-11.77-.11-1.78-.91-2.83-2.39-3.16-.52-.11-1.24-.17-2.16-.17-.63,0-.94-.17-.94-.5s.41-.5,1.22-.5c1.11,0,2.62.03,4.52.08,1.91.06,3.06.08,3.47.08.74,0,2.04-.03,3.91-.08,1.87-.06,3.25-.08,4.13-.08,4.66,0,8.1,1.05,10.32,3.16,1.85,1.74,2.78,3.94,2.78,6.61,0,3.92-1.29,7.14-3.86,9.66-2.57,2.52-5.84,3.77-9.8,3.77-.59,0-.98-.02-1.17-.06-.44-.07-.67-.24-.67-.5,0-.41.52-.61,1.55-.61,1.74,0,3.37-.81,4.88-2.44,1.7-1.85,2.55-4.09,2.55-6.72,0-3.59-1.09-6.36-3.27-8.33-1.59-1.44-3.44-2.16-5.55-2.16-1.04,0-1.73.07-2.08.19-.35.13-.53.49-.53,1.08v22.2c0,6.29.09,10.25.28,11.88.22,1.81.94,2.81,2.16,3,1.07.15,2.02.22,2.83.22.59,0,.89.15.89.44,0,.37-.35.55-1.05.55-1.41,0-3.12-.03-5.13-.08-2.02-.06-3.17-.08-3.47-.08-.33,0-1.38.03-3.14.08-1.76.05-3.04.08-3.86.08-.74,0-1.11-.18-1.11-.55,0-.26.41-.43,1.22-.5.56-.07,1.11-.13,1.67-.17.85-.18,1.39-1.2,1.61-3.05.18-1.44.28-5.38.28-11.82Z"/>
        <path class="cls-2" d="m97.54,48.87h21.2c.22,0,.33-.13.33-.39v-1.17c0-6.62-.04-10.55-.11-11.77-.11-1.78-.91-2.83-2.39-3.16-.52-.11-1.24-.17-2.16-.17-.63,0-.94-.17-.94-.5s.39-.5,1.17-.5c1.11,0,2.63.03,4.55.08,1.92.06,3.07.08,3.44.08s1.43-.03,3.19-.08c1.76-.06,3.03-.08,3.8-.08s1.17.17,1.17.5-.33.5-1,.5c-.44,0-.98.06-1.61.17-1.26.22-1.94,1.28-2.05,3.16-.07,1.22-.11,5.14-.11,11.77v9.77c0,6.29.09,10.25.28,11.88.22,1.81.94,2.81,2.16,3,1.07.15,2.02.22,2.83.22.59,0,.89.15.89.44,0,.37-.37.55-1.11.55-1.37,0-3.07-.03-5.11-.08-2.04-.06-3.22-.08-3.55-.08s-1.37.03-3.11.08c-1.74.05-3.02.08-3.83.08s-1.17-.18-1.17-.55c0-.26.41-.43,1.22-.5.56-.07,1.11-.13,1.67-.17.85-.18,1.39-1.2,1.61-3.05.18-1.44.28-5.38.28-11.82v-4.88c0-.22-.11-.33-.33-.33h-21.2c-.22,0-.33.11-.33.33v4.88c0,6.29.09,10.25.28,11.88.22,1.81.94,2.81,2.16,3,1.07.15,2.02.22,2.83.22.59,0,.89.15.89.44,0,.37-.37.55-1.11.55-1.37,0-3.07-.03-5.11-.08-2.04-.06-3.22-.08-3.55-.08s-1.38.03-3.14.08c-1.76.05-3.04.08-3.86.08-.74,0-1.11-.18-1.11-.55,0-.26.41-.43,1.22-.5.56-.07,1.11-.13,1.67-.17.85-.18,1.39-1.2,1.61-3.05.18-1.44.28-5.38.28-11.82v-9.77c0-6.62-.04-10.55-.11-11.77-.11-1.78-.91-2.83-2.39-3.16-.52-.11-1.24-.17-2.16-.17-.63,0-.94-.17-.94-.5s.39-.5,1.17-.5c1.11,0,2.63.03,4.55.08,1.92.06,3.07.08,3.44.08s1.43-.03,3.19-.08c1.76-.06,3.02-.08,3.8-.08s1.17.17,1.17.5-.33.5-1,.5c-.44,0-.98.06-1.61.17-1.26.22-1.94,1.28-2.05,3.16-.07,1.22-.11,5.14-.11,11.77v1.17c0,.26.11.39.33.39Z"/>
        <path class="cls-2" d="m143.93,57.09v-9.77c0-6.62-.04-10.55-.11-11.77-.11-1.78-.74-2.81-1.89-3.11-.63-.15-1.27-.22-1.92-.22s-.97-.18-.97-.56c0-.3.44-.44,1.33-.44.74,0,2.01.03,3.8.08,1.79.06,2.93.08,3.41.08.41,0,1.44-.03,3.11-.08,1.67-.06,2.89-.08,3.66-.08s1.17.15,1.17.44c0,.37-.27.56-.8.56s-1.11.06-1.73.17c-1.24.22-1.92,1.28-2.03,3.16-.07,1.22-.11,5.14-.11,11.77v9.77c0,6.62.07,10.68.22,12.16.15,1.63.88,2.54,2.2,2.72,1.06.15,2,.22,2.8.22.59,0,.88.15.88.44,0,.37-.35.55-1.05.55-1.41,0-3.12-.03-5.13-.08-2.02-.06-3.19-.08-3.52-.08s-1.38.03-3.14.08c-1.76.05-3.04.08-3.86.08-.74,0-1.11-.18-1.11-.55,0-.26.41-.43,1.22-.5.56-.07,1.11-.13,1.67-.17.89-.18,1.42-1.1,1.61-2.75.18-1.65.28-5.69.28-12.13Z"/>
        <path class="cls-2" d="m176.06,47.32v9.77c0,4.18.06,6.94.17,8.27.15,2,.48,3.22,1,3.66.92.81,3.16,1.22,6.72,1.22,3.37,0,5.53-.52,6.49-1.55.81-.89,1.29-2,1.44-3.33.07-.56.28-.83.61-.83.3,0,.44.31.44.94,0,2.22-.28,4.35-.83,6.38-.22.78-.67,1.24-1.33,1.39-.26.07-.98.11-2.16.11-2.96,0-6.09-.05-9.38-.17-3.29-.11-5.55-.17-6.77-.17-.33,0-1.38.03-3.14.08-1.76.05-3.04.08-3.86.08-.74,0-1.11-.18-1.11-.55,0-.26.41-.43,1.22-.5.56-.07,1.11-.13,1.67-.17.85-.18,1.39-1.2,1.61-3.05.18-1.44.28-5.38.28-11.82v-9.77c0-6.62-.04-10.55-.11-11.77-.07-1.37-.48-2.29-1.22-2.78-.59-.37-1.59-.56-3-.56-.63,0-.94-.17-.94-.5s.41-.5,1.22-.5c.96,0,2.37.03,4.22.08,1.85.06,2.98.08,3.39.08.37,0,1.53-.03,3.47-.08,1.94-.06,3.3-.08,4.08-.08s1.17.17,1.17.5-.33.5-1,.5c-.81,0-1.54.06-2.16.17-1.26.22-1.94,1.28-2.05,3.16-.07,1.22-.11,5.14-.11,11.77Z"/>
        <path class="cls-2" d="m212.02,47.32v9.77c0,4.18.06,6.94.17,8.27.15,2,.48,3.22,1,3.66.92.81,3.16,1.22,6.72,1.22,3.37,0,5.53-.52,6.49-1.55.81-.89,1.29-2,1.44-3.33.07-.56.28-.83.61-.83.3,0,.44.31.44.94,0,2.22-.28,4.35-.83,6.38-.22.78-.67,1.24-1.33,1.39-.26.07-.98.11-2.16.11-2.96,0-6.09-.05-9.38-.17-3.29-.11-5.55-.17-6.77-.17-.33,0-1.38.03-3.14.08-1.76.05-3.04.08-3.86.08-.74,0-1.11-.18-1.11-.55,0-.26.41-.43,1.22-.5.56-.07,1.11-.13,1.67-.17.85-.18,1.39-1.2,1.61-3.05.18-1.44.28-5.38.28-11.82v-9.77c0-6.62-.04-10.55-.11-11.77-.07-1.37-.48-2.29-1.22-2.78-.59-.37-1.59-.56-3-.56-.63,0-.94-.17-.94-.5s.41-.5,1.22-.5c.96,0,2.37.03,4.22.08,1.85.06,2.98.08,3.39.08.37,0,1.53-.03,3.47-.08,1.94-.06,3.3-.08,4.08-.08s1.17.17,1.17.5-.33.5-1,.5c-.81,0-1.54.06-2.16.17-1.26.22-1.94,1.28-2.05,3.16-.07,1.22-.11,5.14-.11,11.77Z"/>
        <path class="cls-2" d="m240.65,57.09v-9.77c0-6.62-.04-10.55-.11-11.77-.11-1.78-.74-2.81-1.89-3.11-.63-.15-1.27-.22-1.92-.22s-.97-.18-.97-.56c0-.3.44-.44,1.33-.44.74,0,2.01.03,3.8.08,1.79.06,2.93.08,3.41.08.41,0,1.44-.03,3.11-.08,1.67-.06,2.89-.08,3.66-.08s1.17.15,1.17.44c0,.37-.27.56-.8.56s-1.11.06-1.73.17c-1.24.22-1.92,1.28-2.03,3.16-.07,1.22-.11,5.14-.11,11.77v9.77c0,6.62.07,10.68.22,12.16.15,1.63.88,2.54,2.2,2.72,1.06.15,2,.22,2.8.22.59,0,.88.15.88.44,0,.37-.35.55-1.05.55-1.41,0-3.12-.03-5.13-.08-2.02-.06-3.19-.08-3.52-.08s-1.38.03-3.14.08c-1.76.05-3.04.08-3.86.08-.74,0-1.11-.18-1.11-.55,0-.26.41-.43,1.22-.5.56-.07,1.11-.13,1.67-.17.89-.18,1.42-1.1,1.61-2.75.18-1.65.28-5.69.28-12.13Z"/>
        <path class="cls-2" d="m266.18,57.09v-9.77c0-6.62-.04-10.55-.11-11.77-.11-1.78-.91-2.83-2.39-3.16-.52-.11-1.24-.17-2.16-.17-.63,0-.94-.17-.94-.5s.41-.5,1.22-.5c1.11,0,2.62.03,4.52.08,1.91.06,3.06.08,3.47.08.74,0,2.04-.03,3.91-.08,1.87-.06,3.25-.08,4.13-.08,4.66,0,8.1,1.05,10.32,3.16,1.85,1.74,2.78,3.94,2.78,6.61,0,3.92-1.29,7.14-3.86,9.66-2.57,2.52-5.84,3.77-9.8,3.77-.59,0-.98-.02-1.17-.06-.44-.07-.67-.24-.67-.5,0-.41.52-.61,1.55-.61,1.74,0,3.37-.81,4.88-2.44,1.7-1.85,2.55-4.09,2.55-6.72,0-3.59-1.09-6.36-3.27-8.33-1.59-1.44-3.44-2.16-5.55-2.16-1.04,0-1.73.07-2.08.19-.35.13-.53.49-.53,1.08v22.2c0,6.29.09,10.25.28,11.88.22,1.81.94,2.81,2.16,3,1.07.15,2.02.22,2.83.22.59,0,.89.15.89.44,0,.37-.35.55-1.05.55-1.41,0-3.12-.03-5.13-.08-2.02-.06-3.17-.08-3.47-.08-.33,0-1.38.03-3.14.08-1.76.05-3.04.08-3.86.08-.74,0-1.11-.18-1.11-.55,0-.26.41-.43,1.22-.5.55-.07,1.11-.13,1.66-.17.85-.18,1.39-1.2,1.61-3.05.18-1.44.28-5.38.28-11.82Z"/>
        <path class="cls-2" d="m306.97,73.96c-3.22,0-5.92-.48-8.1-1.44-.7-.3-1.06-.92-1.06-1.89,0-2,.09-4.42.28-7.27.07-.96.3-1.44.67-1.44s.56.31.56.94c0,.78.17,1.72.5,2.83,1.11,3.74,3.76,5.61,7.94,5.61,2.33,0,4.2-.68,5.61-2.05,1.22-1.22,1.83-2.64,1.83-4.27,0-3.07-1.81-6.03-5.44-8.88l-2.55-2c-5.48-4.29-8.21-8.68-8.21-13.15,0-3.07,1.18-5.59,3.55-7.55,2.37-1.96,5.46-2.94,9.27-2.94,2.41,0,4.87.31,7.38.94.52.15.78.37.78.67,0-.07-.04.58-.11,1.97-.07,1.39-.11,2.95-.11,4.69,0,1.11-.2,1.67-.61,1.67-.37,0-.55-.33-.55-1,0-1.22-.48-2.44-1.44-3.66-1.44-1.81-3.46-2.72-6.05-2.72-2.04,0-3.64.53-4.83,1.58-1.18,1.05-1.78,2.43-1.78,4.13,0,1.3.42,2.53,1.25,3.69.83,1.17,2.38,2.6,4.63,4.3l1.55,1.17c3.33,2.52,5.68,4.84,7.05,6.97,1.37,2.13,2.05,4.52,2.05,7.19,0,4.18-1.74,7.4-5.22,9.66-2.33,1.52-5.27,2.28-8.82,2.28Z"/>
      </g>
      <g>
        <path class="cls-2" d="m347.51,57.09v-9.77c0-6.62-.04-10.55-.11-11.77-.11-1.78-.91-2.83-2.39-3.16-.52-.11-1.24-.17-2.16-.17-.63,0-.94-.17-.94-.5s.41-.5,1.22-.5c1.11,0,2.62.03,4.52.08,1.91.06,3.06.08,3.47.08,8.77,0,13.39-.02,13.88-.06.96-.07,1.76-.18,2.39-.33.63-.15.92-.22.89-.22.22,0,.33.17.33.5,0,.04-.06.37-.17,1-.11.74-.2,1.61-.25,2.61-.06,1-.16,2.22-.31,3.66-.07.41-.26.61-.56.61-.26,0-.42-.2-.47-.61-.06-.41-.1-.8-.14-1.17-.04-.37-.11-.7-.22-1-.45-1.07-1.69-1.74-3.73-2-1.26-.15-3.9-.22-7.91-.22-.26,0-.39.19-.39.56v14.04c0,.41.13.61.39.61,5.09,0,8.06-.04,8.92-.11.63-.04,1.11-.09,1.45-.17.56-.15.97-.37,1.23-.67.45-.48.74-.72.89-.72.26,0,.39.15.39.44,0,.04-.06.41-.17,1.11-.11.85-.2,1.83-.28,2.94-.15,2.11-.22,3.35-.22,3.72,0,.7-.17,1.05-.5,1.05s-.5-.19-.5-.58-.08-1.03-.22-1.91c-.3-1.26-1.34-1.98-3.12-2.16-1.04-.11-3.68-.17-7.91-.17-.22,0-.34.19-.34.56v12.99c.07,1.96.51,3.23,1.31,3.8.8.57,2.59.86,5.38.86,2.53,0,4.27-.22,5.24-.67,1.3-.59,2.14-1.96,2.51-4.11.11-.56.31-.83.61-.83s.44.33.44,1c0,2.26-.24,4.31-.72,6.16-.19.67-.44,1.07-.78,1.22-.33.15-1.07.22-2.22.22-3.22,0-6.42-.05-9.6-.17-3.18-.11-5.11-.17-5.77-.17-.33,0-1.38.03-3.14.08-1.76.05-3.04.08-3.86.08-.74,0-1.11-.18-1.11-.55,0-.26.41-.43,1.22-.5.55-.07,1.11-.13,1.66-.17.85-.18,1.39-1.2,1.61-3.05.18-1.44.28-5.38.28-11.82Z"/>
        <path class="cls-2" d="m394.85,63.36v-4.55c0-1.96-.43-3.9-1.28-5.83-.22-.44-1.67-2.87-4.36-7.27-2.68-4.4-4.49-7.31-5.41-8.71-1.37-2.03-2.65-3.39-3.83-4.05-.85-.48-1.63-.72-2.33-.72-.56,0-.83-.17-.83-.5s.35-.5,1.06-.5c.26,0,1.32.03,3.19.08,1.87.06,3.14.08,3.8.08.3,0,1.13-.03,2.5-.08,1.37-.06,2.52-.08,3.44-.08.56,0,.83.17.83.5,0,.19-.41.39-1.22.61-.52.11-.78.44-.78,1,0,.33.22.96.67,1.89.15.33,3.29,5.86,9.44,16.6,2.52-4.51,5.29-9.6,8.33-15.26.52-1.15.78-2.11.78-2.89s-.36-1.19-1.08-1.36c-.72-.17-1.08-.36-1.08-.58,0-.33.31-.5.94-.5s1.53.03,2.69.08c1.17.06,2.01.08,2.52.08.41,0,1.42-.03,3.03-.08,1.61-.06,2.58-.08,2.91-.08.67,0,1,.15,1,.44,0,.37-.36.56-1.09.56s-1.52.22-2.39.67c-.87.44-1.88,1.35-3.03,2.72-.89,1.07-2.76,3.98-5.59,8.71-2.84,4.74-4.52,7.72-5.04,8.94-.56,1.33-.84,3.18-.84,5.55v4.55c0,3.26.09,5.37.28,6.33.22,1.37.95,2.13,2.18,2.28,1.08.15,2.01.22,2.8.22.6,0,.9.15.9.44,0,.37-.39.55-1.17.55-1.33,0-3-.03-5-.08-2-.06-3.16-.08-3.5-.08-.41,0-1.48.03-3.22.08-1.74.05-2.98.08-3.72.08-.81,0-1.22-.18-1.22-.55,0-.22.41-.39,1.22-.5.52-.07,1.05-.13,1.61-.17,1.04-.22,1.61-1.24,1.72-3.05.11-1.59.17-3.44.17-5.55Z"/>
        <path class="cls-2" d="m432.25,57.09v-9.77c0-6.62-.04-10.55-.11-11.77-.11-1.78-.91-2.83-2.39-3.16-.52-.11-1.24-.17-2.16-.17-.63,0-.94-.17-.94-.5s.41-.5,1.22-.5c1.11,0,2.62.03,4.52.08,1.91.06,3.06.08,3.47.08,8.77,0,13.39-.02,13.88-.06.96-.07,1.76-.18,2.39-.33.63-.15.92-.22.89-.22.22,0,.33.17.33.5,0,.04-.06.37-.17,1-.11.74-.2,1.61-.25,2.61-.06,1-.16,2.22-.31,3.66-.07.41-.26.61-.56.61-.26,0-.42-.2-.47-.61-.06-.41-.1-.8-.14-1.17-.04-.37-.11-.7-.22-1-.45-1.07-1.69-1.74-3.73-2-1.26-.15-3.9-.22-7.91-.22-.26,0-.39.19-.39.56v14.04c0,.41.13.61.39.61,5.09,0,8.06-.04,8.92-.11.63-.04,1.11-.09,1.45-.17.56-.15.97-.37,1.23-.67.45-.48.74-.72.89-.72.26,0,.39.15.39.44,0,.04-.06.41-.17,1.11-.11.85-.2,1.83-.28,2.94-.15,2.11-.22,3.35-.22,3.72,0,.7-.17,1.05-.5,1.05s-.5-.19-.5-.58-.08-1.03-.22-1.91c-.3-1.26-1.34-1.98-3.12-2.16-1.04-.11-3.68-.17-7.91-.17-.22,0-.34.19-.34.56v12.99c.07,1.96.51,3.23,1.31,3.8.8.57,2.59.86,5.38.86,2.53,0,4.27-.22,5.24-.67,1.3-.59,2.14-1.96,2.51-4.11.11-.56.31-.83.61-.83s.44.33.44,1c0,2.26-.24,4.31-.72,6.16-.19.67-.44,1.07-.78,1.22-.33.15-1.07.22-2.22.22-3.22,0-6.42-.05-9.6-.17-3.18-.11-5.11-.17-5.77-.17-.33,0-1.38.03-3.14.08-1.76.05-3.04.08-3.86.08-.74,0-1.11-.18-1.11-.55,0-.26.41-.43,1.22-.5.55-.07,1.11-.13,1.66-.17.85-.18,1.39-1.2,1.61-3.05.18-1.44.28-5.38.28-11.82Z"/>
      </g>
    </g>
    <g>
      <path class="cls-2" d="m111.18,98.85v-3.54c0-2.4-.01-3.83-.04-4.27-.04-.65-.33-1.03-.87-1.15-.19-.04-.45-.06-.78-.06-.23,0-.34-.06-.34-.18s.15-.18.44-.18c.42,0,.96,0,1.62.03.66.02,1.04.03,1.12.03.35,0,.8,0,1.34-.03.54-.02.92-.03,1.12-.03,1.61,0,2.78.37,3.5,1.11.52.52.79,1.16.79,1.91,0,1.25-.68,2.42-2.05,3.52.98.34,1.8.84,2.46,1.51.81.82,1.21,1.77,1.21,2.84,0,1.18-.43,2.18-1.29,3-.99.93-2.36,1.39-4.09,1.39-.15,0-.62-.02-1.41-.06-.79-.04-1.3-.06-1.51-.06-.12,0-.5,0-1.14.03-.64.02-1.1.03-1.4.03-.27,0-.4-.07-.4-.2,0-.09.15-.15.44-.18.2-.03.4-.05.6-.06.31-.07.5-.44.58-1.11.07-.52.1-1.95.1-4.29Zm2.42-8.17v4.97c0,.12.05.19.14.22.17.04.49.06.95.06.66,0,1.14-.13,1.45-.38.55-.46.82-1.17.82-2.13,0-.78-.2-1.47-.6-2.07-.48-.7-1.12-1.05-1.91-1.05-.46,0-.71.03-.77.08-.05.05-.08.15-.08.3Zm4.61,10.59c0-1.76-.65-3.09-1.95-4.01-.4-.28-.96-.44-1.67-.48-.25-.01-.54-.02-.87-.02-.08,0-.12.05-.12.14v4.77c0,.7.04,1.15.12,1.37.08.26.27.44.58.56.39.16.88.24,1.47.24s1.12-.17,1.55-.5c.59-.46.89-1.15.89-2.07Z"/>
      <path class="cls-2" d="m125.39,98.85v-3.54c0-2.4-.01-3.83-.04-4.27-.04-.65-.33-1.03-.87-1.15-.19-.04-.45-.06-.79-.06-.23,0-.34-.06-.34-.18s.15-.18.44-.18c.42,0,.96,0,1.63.03.67.02,1.05.03,1.13.03.23,0,.71,0,1.44-.03.73-.02,1.2-.03,1.4-.03,1.62,0,2.86.29,3.7.87.34.23.63.57.89,1.03.32.54.48,1.11.48,1.73,0,1.57-.89,3.07-2.66,4.51,1.46,1.85,2.27,2.86,2.42,3.02.78.98,1.43,1.74,1.95,2.27.74.77,1.49,1.22,2.26,1.37.16.01.31.03.46.04.23.03.34.09.34.18,0,.13-.13.2-.38.2h-1.91c-.97,0-1.68-.13-2.15-.38-.66-.35-1.58-1.34-2.76-2.96-.58-.82-1.24-1.74-1.99-2.78-.08-.09-.2-.14-.36-.14h-1.75c-.11,0-.16.05-.16.16v.28c0,2.27.03,3.69.1,4.28.08.68.34,1.05.79,1.1.4.05.73.08.99.08.16,0,.24.05.24.16,0,.13-.13.2-.4.2-.46,0-1.06,0-1.8-.03-.74-.02-1.13-.03-1.16-.03-.09,0-.45,0-1.07.03-.62.02-1.08.03-1.39.03-.27,0-.4-.07-.4-.2,0-.09.15-.15.44-.18.2-.03.4-.05.6-.06.31-.07.5-.44.58-1.11.07-.52.1-1.95.1-4.29Zm2.38-8.07v6.12c0,.2.06.32.18.36.38.13.89.2,1.53.2s1.12-.11,1.43-.34c.79-.58,1.19-1.58,1.19-3.02,0-1.27-.36-2.25-1.09-2.92-.58-.51-1.24-.77-1.99-.77-.64,0-1.03.04-1.15.12-.07.04-.1.12-.1.24Z"/>
      <path class="cls-2" d="m145.9,99.44h-4.49c-.08,0-.14.05-.18.16l-1.09,2.88c-.2.54-.3.95-.3,1.23,0,.42.27.62.81.62h.3c.2,0,.3.05.3.16,0,.13-.11.2-.34.2-.22,0-.57,0-1.08-.03-.5-.02-.86-.03-1.06-.03-1.17.04-1.96.06-2.38.06-.25,0-.38-.07-.38-.2,0-.11.08-.16.24-.16.21,0,.42-.01.62-.04.43-.05.78-.24,1.05-.56.21-.25.44-.67.66-1.25l5.05-12.64c.21-.54.4-.8.56-.8.15,0,.32.21.5.64,1.23,3.11,2.9,7.24,4.99,12.38.56,1.33,1.15,2.06,1.77,2.2.24.05.52.08.85.08.17,0,.26.05.26.16,0,.08-.07.13-.2.16-.13.03-.38.04-.72.04-1.66,0-2.93-.01-3.8-.04-.4-.01-.6-.07-.6-.16,0-.11.09-.17.28-.18.21-.07.28-.22.18-.46l-1.61-4.27c-.04-.1-.11-.14-.2-.14Zm-4.09-1.01h3.7c.09,0,.13-.04.1-.12l-1.81-4.97c-.03-.12-.06-.18-.1-.18-.05,0-.09.06-.12.18l-1.85,4.95c-.03.1,0,.14.08.14Z"/>
      <path class="cls-2" d="m155.61,93.5l.22,8.46c.04,1.34.28,2.09.7,2.23.04.01.3.05.79.1.4.05.6.12.6.2,0,.13-.15.2-.46.2-.51,0-1.04,0-1.59-.03-.55-.02-.85-.03-.91-.03.01,0-.24,0-.77.03-.52.02-.99.03-1.41.03-.29,0-.44-.07-.44-.2,0-.09.17-.15.52-.18.24-.03.48-.05.7-.08.25-.08.42-.29.5-.64.07-.31.11-.93.12-1.85l.18-11.92c.01-.46.1-.68.26-.68.11,0,.36.21.75.62,1.1,1.18,3.18,3.34,6.24,6.46,1.37,1.42,2.84,2.95,4.43,4.59h.1l-.2-9.04c-.01-.5-.04-.84-.08-1.03-.11-.4-.31-.66-.6-.78-.2-.08-.56-.12-1.07-.12-.21,0-.32-.06-.32-.18s.17-.18.52-.18c.4,0,.89,0,1.45.03.56.02.89.03.99.03.01,0,.25,0,.71-.03.46-.02.88-.03,1.27-.03.31,0,.46.06.46.18s-.12.18-.36.18c-.67,0-1.08.22-1.23.67-.07.24-.11.61-.12,1.11l-.22,12.7c-.01.42-.1.62-.26.62-.15,0-.38-.15-.68-.44-1.29-1.27-3.27-3.25-5.94-5.92-.91-.9-1.94-1.97-3.08-3.2-.58-.63-1.15-1.25-1.71-1.87h-.06Z"/>
      <path class="cls-2" d="m173.74,98.85v-3.54c0-2.4-.01-3.83-.04-4.27-.04-.65-.33-1.03-.87-1.15-.19-.04-.45-.06-.79-.06-.23,0-.34-.06-.34-.18s.15-.18.44-.18c.4,0,.95,0,1.64.03.69.02,1.11.03,1.26.03.16,0,.6,0,1.33-.03.72-.02,1.32-.03,1.77-.03,1.81,0,3.19.1,4.15.28,1.65.34,2.96,1.01,3.93,2.01,1.3,1.35,1.95,3.06,1.95,5.11,0,2.25-.73,4.13-2.2,5.62-1.56,1.58-3.8,2.38-6.74,2.38-.52,0-1.3-.04-2.32-.12s-1.68-.12-1.97-.12c-.12,0-.5,0-1.14.03-.64.02-1.1.03-1.4.03-.27,0-.4-.07-.4-.2,0-.09.15-.15.44-.18.2-.03.4-.05.6-.06.31-.07.5-.44.59-1.11.07-.52.1-1.95.1-4.29Zm2.52-3.86v2.54c0,2.12.01,3.48.04,4.07.04.86.11,1.37.22,1.53.38.54,1.25.81,2.64.81,1.97,0,3.52-.48,4.64-1.45s1.68-2.64,1.68-5.01c0-2.12-.64-3.8-1.93-5.03-1.41-1.34-3.31-2.01-5.71-2.01-.67,0-1.1.04-1.28.12-.18.08-.27.22-.27.42-.02.6-.02,1.95-.02,4.03Z"/>
      <path class="cls-2" d="m198.5,104.97c-2.66,0-4.73-.87-6.22-2.62-1.26-1.46-1.89-3.22-1.89-5.27s.63-3.77,1.89-5.23c1.52-1.77,3.66-2.66,6.42-2.66,2.5,0,4.48.68,5.94,2.03,1.46,1.36,2.19,3.19,2.19,5.5s-.75,4.32-2.25,5.86c-1.54,1.6-3.57,2.4-6.08,2.4Zm.85-1.01c1.13,0,2.08-.35,2.86-1.07,1.21-1.09,1.81-2.9,1.81-5.44,0-2.2-.57-3.99-1.71-5.35-1.1-1.3-2.5-1.95-4.19-1.95-1.38,0-2.5.42-3.34,1.27-1.07,1.07-1.61,2.75-1.61,5.03,0,2.16.55,3.93,1.65,5.31,1.14,1.46,2.65,2.19,4.53,2.19Z"/>
      <path class="cls-2" d="m212.17,93.5l.22,8.46c.04,1.34.27,2.09.7,2.23.04.01.3.05.78.1.4.05.6.12.6.2,0,.13-.16.2-.46.2-.51,0-1.04,0-1.59-.03-.55-.02-.85-.03-.91-.03.01,0-.24,0-.77.03-.52.02-.99.03-1.41.03-.29,0-.44-.07-.44-.2,0-.09.17-.15.52-.18.24-.03.48-.05.7-.08.26-.08.42-.29.5-.64.07-.31.11-.93.12-1.85l.18-11.92c.01-.46.1-.68.26-.68.11,0,.36.21.74.62,1.1,1.18,3.18,3.34,6.24,6.46,1.37,1.42,2.84,2.95,4.43,4.59h.1l-.2-9.04c-.01-.5-.04-.84-.08-1.03-.11-.4-.31-.66-.6-.78-.2-.08-.56-.12-1.07-.12-.21,0-.32-.06-.32-.18s.17-.18.52-.18c.4,0,.89,0,1.45.03.56.02.89.03.99.03.01,0,.25,0,.7-.03.46-.02.88-.03,1.27-.03.31,0,.46.06.46.18s-.12.18-.36.18c-.67,0-1.08.22-1.23.67-.07.24-.11.61-.12,1.11l-.22,12.7c-.01.42-.1.62-.26.62-.15,0-.38-.15-.68-.44-1.29-1.27-3.27-3.25-5.94-5.92-.91-.9-1.94-1.97-3.08-3.2-.58-.63-1.15-1.25-1.71-1.87h-.06Z"/>
      <path class="cls-2" d="m236.35,98.85v-3.54c0-2.4-.01-3.83-.04-4.27-.04-.65-.33-1.03-.87-1.15-.19-.04-.45-.06-.78-.06-.23,0-.34-.06-.34-.18s.15-.18.44-.18c.4,0,.95,0,1.64.03.69.02,1.11.03,1.26.03.27,0,.74,0,1.42-.03.68-.02,1.18-.03,1.5-.03,1.69,0,2.94.38,3.74,1.15.67.63,1.01,1.43,1.01,2.4,0,1.42-.47,2.59-1.4,3.5-.93.91-2.12,1.37-3.55,1.37-.21,0-.36,0-.42-.02-.16-.03-.24-.09-.24-.18,0-.15.19-.22.56-.22.63,0,1.22-.29,1.77-.88.62-.67.93-1.48.93-2.44,0-1.3-.4-2.31-1.19-3.02-.58-.52-1.25-.78-2.01-.78-.38,0-.63.02-.76.07-.13.05-.19.18-.19.39v8.05c0,2.28.03,3.72.1,4.31.08.66.34,1.02.78,1.09.39.05.73.08,1.03.08.21,0,.32.05.32.16,0,.13-.13.2-.38.2-.51,0-1.13,0-1.86-.03-.73-.02-1.15-.03-1.26-.03-.12,0-.5,0-1.14.03-.64.02-1.1.03-1.4.03-.27,0-.4-.07-.4-.2,0-.09.15-.15.44-.18.2-.03.4-.05.6-.06.31-.07.5-.44.58-1.11.07-.52.1-1.95.1-4.29Z"/>
      <path class="cls-2" d="m252.17,95.87h7.69c.08,0,.12-.05.12-.14v-.42c0-2.4-.01-3.83-.04-4.27-.04-.65-.33-1.03-.87-1.15-.19-.04-.45-.06-.78-.06-.23,0-.34-.06-.34-.18s.14-.18.42-.18c.4,0,.95,0,1.65.03.7.02,1.11.03,1.25.03s.52,0,1.16-.03c.64-.02,1.1-.03,1.38-.03s.42.06.42.18-.12.18-.36.18c-.16,0-.36.02-.58.06-.46.08-.7.46-.75,1.15-.03.44-.04,1.86-.04,4.27v3.54c0,2.28.03,3.72.1,4.31.08.66.34,1.02.78,1.09.39.05.73.08,1.03.08.21,0,.32.05.32.16,0,.13-.13.2-.4.2-.5,0-1.11,0-1.85-.03-.74-.02-1.17-.03-1.29-.03s-.5,0-1.13.03c-.63.02-1.09.03-1.39.03s-.42-.07-.42-.2c0-.09.15-.15.44-.18.2-.03.4-.05.6-.06.31-.07.5-.44.58-1.11.07-.52.1-1.95.1-4.29v-1.77c0-.08-.04-.12-.12-.12h-7.69c-.08,0-.12.04-.12.12v1.77c0,2.28.03,3.72.1,4.31.08.66.34,1.02.78,1.09.39.05.73.08,1.03.08.21,0,.32.05.32.16,0,.13-.13.2-.4.2-.5,0-1.11,0-1.85-.03-.74-.02-1.17-.03-1.29-.03s-.5,0-1.14.03c-.64.02-1.1.03-1.4.03-.27,0-.4-.07-.4-.2,0-.09.15-.15.44-.18.2-.03.4-.05.6-.06.31-.07.5-.44.58-1.11.07-.52.1-1.95.1-4.29v-3.54c0-2.4-.01-3.83-.04-4.27-.04-.65-.33-1.03-.87-1.15-.19-.04-.45-.06-.78-.06-.23,0-.34-.06-.34-.18s.14-.18.42-.18c.4,0,.95,0,1.65.03.7.02,1.11.03,1.25.03s.52,0,1.16-.03c.64-.02,1.1-.03,1.38-.03s.42.06.42.18-.12.18-.36.18c-.16,0-.36.02-.58.06-.46.08-.7.46-.74,1.15-.03.44-.04,1.86-.04,4.27v.42c0,.09.04.14.12.14Z"/>
      <path class="cls-2" d="m269.1,98.85v-3.54c0-2.4-.01-3.83-.04-4.27-.04-.65-.27-1.02-.68-1.13-.23-.05-.46-.08-.69-.08s-.35-.07-.35-.2c0-.11.16-.16.48-.16.27,0,.73,0,1.38.03.65.02,1.06.03,1.24.03.15,0,.52,0,1.13-.03.6-.02,1.05-.03,1.33-.03s.42.05.42.16c0,.13-.1.2-.29.2s-.4.02-.63.06c-.45.08-.7.46-.74,1.15-.03.44-.04,1.86-.04,4.27v3.54c0,2.4.03,3.87.08,4.41.05.59.32.92.8.99.38.05.72.08,1.02.08.21,0,.32.05.32.16,0,.13-.13.2-.38.2-.51,0-1.13,0-1.86-.03-.73-.02-1.16-.03-1.28-.03s-.5,0-1.14.03c-.64.02-1.1.03-1.4.03-.27,0-.4-.07-.4-.2,0-.09.15-.15.44-.18.2-.03.4-.05.6-.06.32-.07.52-.4.58-1,.07-.6.1-2.06.1-4.4Z"/>
      <path class="cls-2" d="m280.72,95.31v3.54c0,1.52.02,2.52.06,3,.05.73.17,1.17.36,1.33.34.3,1.15.44,2.44.44,1.22,0,2.01-.19,2.36-.56.29-.32.47-.73.52-1.21.03-.2.1-.3.22-.3.11,0,.16.11.16.34,0,.8-.1,1.58-.3,2.31-.08.28-.24.45-.48.5-.1.03-.36.04-.79.04-1.07,0-2.21-.02-3.4-.06-1.2-.04-2.01-.06-2.46-.06-.12,0-.5,0-1.14.03-.64.02-1.1.03-1.4.03-.27,0-.4-.07-.4-.2,0-.09.15-.15.44-.18.2-.03.4-.05.6-.06.31-.07.5-.44.58-1.11.07-.52.1-1.95.1-4.29v-3.54c0-2.4-.01-3.83-.04-4.27-.03-.5-.18-.83-.44-1.01-.21-.13-.58-.2-1.09-.2-.23,0-.34-.06-.34-.18s.15-.18.44-.18c.35,0,.86,0,1.53.03.67.02,1.08.03,1.23.03.13,0,.55,0,1.26-.03.7-.02,1.2-.03,1.48-.03s.42.06.42.18-.12.18-.36.18c-.3,0-.56.02-.79.06-.46.08-.7.46-.74,1.15-.03.44-.04,1.86-.04,4.27Z"/>
      <path class="cls-2" d="m292.9,95.31v3.54c0,1.52.02,2.52.06,3,.05.73.17,1.17.36,1.33.34.3,1.15.44,2.44.44,1.22,0,2.01-.19,2.36-.56.29-.32.47-.73.52-1.21.03-.2.1-.3.22-.3.11,0,.16.11.16.34,0,.8-.1,1.58-.3,2.31-.08.28-.24.45-.48.5-.1.03-.36.04-.79.04-1.07,0-2.21-.02-3.4-.06-1.2-.04-2.01-.06-2.46-.06-.12,0-.5,0-1.14.03-.64.02-1.1.03-1.4.03-.27,0-.4-.07-.4-.2,0-.09.15-.15.44-.18.2-.03.4-.05.6-.06.31-.07.5-.44.58-1.11.07-.52.1-1.95.1-4.29v-3.54c0-2.4-.01-3.83-.04-4.27-.03-.5-.18-.83-.44-1.01-.21-.13-.58-.2-1.09-.2-.23,0-.34-.06-.34-.18s.15-.18.44-.18c.35,0,.86,0,1.53.03.67.02,1.08.03,1.23.03.13,0,.55,0,1.26-.03.7-.02,1.2-.03,1.48-.03s.42.06.42.18-.12.18-.36.18c-.3,0-.56.02-.79.06-.46.08-.7.46-.74,1.15-.03.44-.04,1.86-.04,4.27Z"/>
      <path class="cls-2" d="m302.56,98.85v-3.54c0-2.4-.01-3.83-.04-4.27-.04-.65-.27-1.02-.68-1.13-.23-.05-.46-.08-.69-.08s-.35-.07-.35-.2c0-.11.16-.16.48-.16.27,0,.73,0,1.38.03.65.02,1.06.03,1.24.03.15,0,.52,0,1.13-.03.6-.02,1.05-.03,1.33-.03s.42.05.42.16c0,.13-.1.2-.29.2s-.4.02-.63.06c-.45.08-.7.46-.74,1.15-.03.44-.04,1.86-.04,4.27v3.54c0,2.4.03,3.87.08,4.41.05.59.32.92.8.99.38.05.72.08,1.02.08.21,0,.32.05.32.16,0,.13-.13.2-.38.2-.51,0-1.13,0-1.86-.03-.73-.02-1.16-.03-1.28-.03s-.5,0-1.14.03c-.64.02-1.1.03-1.4.03-.27,0-.4-.07-.4-.2,0-.09.15-.15.44-.18.2-.03.4-.05.6-.06.32-.07.52-.4.58-1,.07-.6.1-2.06.1-4.4Z"/>
      <path class="cls-2" d="m311.66,98.85v-3.54c0-2.4-.01-3.83-.04-4.27-.04-.65-.33-1.03-.87-1.15-.19-.04-.45-.06-.78-.06-.23,0-.34-.06-.34-.18s.15-.18.44-.18c.4,0,.95,0,1.64.03.69.02,1.11.03,1.26.03.27,0,.74,0,1.42-.03.68-.02,1.18-.03,1.5-.03,1.69,0,2.94.38,3.74,1.15.67.63,1.01,1.43,1.01,2.4,0,1.42-.47,2.59-1.4,3.5-.93.91-2.12,1.37-3.55,1.37-.21,0-.36,0-.42-.02-.16-.03-.24-.09-.24-.18,0-.15.19-.22.56-.22.63,0,1.22-.29,1.77-.88.62-.67.93-1.48.93-2.44,0-1.3-.4-2.31-1.19-3.02-.58-.52-1.25-.78-2.01-.78-.38,0-.63.02-.76.07-.13.05-.19.18-.19.39v8.05c0,2.28.03,3.72.1,4.31.08.66.34,1.02.78,1.09.39.05.73.08,1.03.08.21,0,.32.05.32.16,0,.13-.13.2-.38.2-.51,0-1.13,0-1.86-.03-.73-.02-1.15-.03-1.26-.03-.12,0-.5,0-1.14.03-.64.02-1.1.03-1.4.03-.27,0-.4-.07-.4-.2,0-.09.15-.15.44-.18.2-.03.4-.05.6-.06.31-.07.5-.44.58-1.11.07-.52.1-1.95.1-4.29Z"/>
      <path class="cls-2" d="m326.68,104.97c-1.17,0-2.15-.18-2.94-.52-.25-.11-.38-.33-.38-.68,0-.73.03-1.6.1-2.64.03-.35.11-.52.24-.52s.2.11.2.34c0,.28.06.62.18,1.03.4,1.36,1.36,2.03,2.88,2.03.85,0,1.52-.25,2.03-.75.44-.44.66-.96.66-1.55,0-1.11-.66-2.19-1.97-3.22l-.93-.72c-1.99-1.56-2.98-3.15-2.98-4.77,0-1.11.43-2.03,1.29-2.74.86-.71,1.98-1.07,3.36-1.07.87,0,1.77.11,2.68.34.19.05.28.13.28.24,0-.03-.01.21-.04.72-.03.5-.04,1.07-.04,1.7,0,.4-.07.6-.22.6-.13,0-.2-.12-.2-.36,0-.44-.18-.88-.52-1.33-.52-.66-1.25-.99-2.19-.99-.74,0-1.32.19-1.75.58-.43.38-.65.88-.65,1.5,0,.47.15.92.45,1.34s.86.94,1.68,1.56l.56.42c1.21.91,2.06,1.75,2.56,2.53.5.77.74,1.64.74,2.61,0,1.52-.63,2.69-1.89,3.5-.85.55-1.91.83-3.2.83Z"/>
      <path class="cls-2" d="m334.55,103.2c0-.34.17-.65.51-.95s.67-.44,1-.44c.12,0,.31.2.56.59.26.4.38.71.38.96s-.09.56-.26.97c-.5,1.14-1.03,2.03-1.59,2.68-.19.16-.3.24-.34.24-.11,0-.16-.07-.16-.2,0,.04.05-.08.16-.34.39-.67.58-1.25.58-1.75,0-.46-.14-.86-.42-1.2-.28-.34-.42-.53-.42-.55Z"/>
      <path class="cls-2" d="m346.38,102.68l1.99-13.13c.05-.35.17-.52.34-.52.16,0,.34.21.54.62l5.49,11.35,5.48-11.49c.15-.32.29-.48.44-.48.17,0,.29.21.36.62l1.83,12.44c.09.67.21,1.15.34,1.45.13.3.35.49.64.58.44.13.86.2,1.25.2.21,0,.32.05.32.14,0,.15-.18.22-.52.22-1.7,0-3.07-.04-4.09-.12-.39-.03-.58-.1-.58-.22,0-.09.07-.17.21-.22s.18-.34.11-.87l-1.21-8.86h-.08l-4.39,9.16c-.36.75-.61,1.13-.75,1.13-.12,0-.36-.34-.7-1.01-1.27-2.43-2.05-3.96-2.31-4.58-.46-.99-1.15-2.49-2.09-4.48h-.08l-1.05,8.01c-.04.31-.06.62-.06.95s.2.55.6.64c.29.07.58.1.85.1.2,0,.3.05.3.14,0,.15-.16.22-.48.22s-.73,0-1.24-.03c-.5-.02-.8-.03-.88-.03-.11,0-.41,0-.9.03-.49.02-.86.03-1.1.03s-.36-.07-.36-.22c0-.1.11-.14.32-.14s.42-.02.6-.06c.4-.08.68-.61.82-1.59Z"/>
      <path class="cls-2" d="m367.82,104.63c-.39,0-.7-.13-.93-.4-.19-.23-.28-.5-.28-.83,0-.29.1-.56.28-.8.24-.28.56-.42.95-.42.35,0,.64.11.88.32.23.22.35.5.35.85s-.11.67-.34.92c-.23.25-.53.37-.91.37Z"/>
      <path class="cls-2" d="m373.66,98.85v-3.54c0-2.4-.01-3.83-.04-4.27-.04-.65-.33-1.03-.87-1.15-.19-.04-.45-.06-.78-.06-.23,0-.34-.06-.34-.18s.15-.18.44-.18c.4,0,.95,0,1.64.03.69.02,1.11.03,1.26.03.16,0,.6,0,1.33-.03.72-.02,1.32-.03,1.77-.03,1.81,0,3.19.1,4.15.28,1.65.34,2.96,1.01,3.93,2.01,1.3,1.35,1.95,3.06,1.95,5.11,0,2.25-.73,4.13-2.2,5.62-1.56,1.58-3.8,2.38-6.74,2.38-.52,0-1.3-.04-2.31-.12-1.02-.08-1.68-.12-1.97-.12-.12,0-.5,0-1.14.03-.64.02-1.1.03-1.4.03-.27,0-.4-.07-.4-.2,0-.09.15-.15.44-.18.2-.03.4-.05.6-.06.31-.07.5-.44.58-1.11.07-.52.1-1.95.1-4.29Zm2.52-3.86v2.54c0,2.12.01,3.48.04,4.07.04.86.11,1.37.22,1.53.38.54,1.25.81,2.64.81,1.97,0,3.52-.48,4.64-1.45s1.68-2.64,1.68-5.01c0-2.12-.64-3.8-1.93-5.03-1.41-1.34-3.31-2.01-5.72-2.01-.67,0-1.1.04-1.28.12-.18.08-.27.22-.27.42-.01.6-.02,1.95-.02,4.03Z"/>
      <path class="cls-2" d="m391.7,104.63c-.39,0-.7-.13-.93-.4-.19-.23-.28-.5-.28-.83,0-.29.1-.56.28-.8.24-.28.56-.42.95-.42.35,0,.64.11.88.32.23.22.35.5.35.85s-.11.67-.34.92c-.23.25-.53.37-.91.37Z"/>
    </g>
    <path class="cls-1" d="m250.91,132.2h217.78c.54,0,.98-.44.98-.98.33-22.47,12.07-31,30.94-31.29.54,0,.98-.44.98-.98V33.75c0-.54-.44-.98-.98-.98-18.87-.28-30.61-8.82-30.94-31.29,0-.54-.44-.98-.98-.98h-217.78.09H33.22c-.54,0-.98.44-.98.98-.33,22.47-11.88,31.05-30.75,31.33-.54,0-.98.44-.98.98v65.19c0,.54.44.98.98.98,18.87.28,30.42,8.77,30.75,31.24,0,.54.44.98.98.98h217.78-.09Z"/>
  </g>
</svg>