<?xml version="1.0" encoding="UTF-8"?>
<svg xmlns="http://www.w3.org/2000/svg" version="1.1" viewBox="0 0 501.1 131.7">
  <defs>
    <style>
      .cls-1 {
        fill: #485a6a;
      }
    </style>
  </defs>
  <!-- Generator: Adobe Illustrator 28.6.0, SVG Export Plug-In . SVG Version: 1.2.0 Build 709)  -->
  <g>
    <g id="Layer_1">
      <g id="Layer_1-2" data-name="Layer_1">
        <path class="cls-1" d="M467.2,2c.6,20.8,11.4,31.6,31.9,32.2v63.2c-20.5.6-31.3,11.5-31.9,32.2H33.7c-.6-21-11-31.6-31.7-32.2v-63.2c20.7-.6,31.1-11.2,31.7-32.3h433.5M468.2,0H32.7C32.2,0,31.7.4,31.7,1c-.3,22.5-11.9,31.1-30.8,31.3-.5,0-1,.4-1,1v65.2c0,.5.4,1,1,1,18.9.3,30.4,8.8,30.8,31.2,0,.5.4,1,1,1h435.5c.5,0,1-.4,1-1,.3-22.5,12.1-31,30.9-31.3.5,0,1-.4,1-1V33.3c0-.5-.4-1-1-1-18.9-.3-30.6-8.8-30.9-31.3C469.2.5,468.8,0,468.2,0Z"/>
        <path class="cls-1" d="M462.7,7.5c1,16.8,14.4,30.3,31.2,31.3v54.3c-16.7,1-30.2,14.4-31.2,31.2H38.4c-1-16.7-14.4-30.2-31.2-31.2v-54.4c16.7-1,30.2-14.4,31.2-31.2h424.2M463.6,5.5H37.5c-.6,0-1,.4-1,1-.5,16.4-13.8,29.7-30.2,30.2-.6,0-1,.5-1,1v56.3c0,.6.4,1,1,1,16.4.5,29.7,13.8,30.2,30.2,0,.6.5,1,1,1h426.1c.6,0,1-.4,1-1,.5-16.4,13.8-29.7,30.2-30.2.6,0,1-.5,1-1v-56.2c0-.6-.4-1-1-1-16.4-.5-29.7-13.9-30.2-30.3,0-.6-.5-1-1-1Z"/>
        <path class="cls-1" d="M52.5,56.6v-9.8c0-6.6,0-10.5,0-11.8,0-1.8-.9-2.8-2.4-3.2-.5-.1-1.2-.2-2.2-.2s-.9-.2-.9-.5.4-.5,1.2-.5h16c4.7,0,8.1,1.1,10.3,3.2,1.8,1.7,2.8,3.9,2.8,6.6,0,3.9-1.3,7.1-3.9,9.7-2.6,2.5-5.8,3.8-9.8,3.8h-1.2c-.4,0-.7-.2-.7-.5s.5-.6,1.6-.6c1.7,0,3.4-.8,4.9-2.4,1.7-1.8,2.6-4.1,2.6-6.7s-1.1-6.4-3.3-8.3c-1.6-1.4-3.4-2.2-5.6-2.2s-1.7,0-2.1.2c-.4,0-.5.5-.5,1.1v22.2c0,6.3,0,10.2.3,11.9.2,1.8.9,2.8,2.2,3,1.1,0,2,.2,2.8.2s.9,0,.9.4-.4.6-1.1.6h-15.6c-.9,0-1.1-.2-1.1-.6s.4-.4,1.2-.5c.6,0,1.1,0,1.7-.2.9-.2,1.4-1.2,1.6-3.1.2-1.4.3-5.4.3-11.8h0ZM97,48.4h21.2c.2,0,.3,0,.3-.4v-1.2c0-6.6,0-10.5,0-11.8,0-1.8-.9-2.8-2.4-3.2-.5-.1-1.2-.2-2.2-.2s-.9-.2-.9-.5.4-.5,1.2-.5h15c.8,0,1.2.2,1.2.5s-.3.5-1,.5-1,0-1.6.2c-1.3.2-1.9,1.3-2.1,3.2,0,1.2,0,5.1,0,11.8v9.8c0,6.3,0,10.2.3,11.9.2,1.8.9,2.8,2.2,3,1.1,0,2,.2,2.8.2s.9,0,.9.4-.4.6-1.1.6h-15.6c-.8,0-1.2-.2-1.2-.6s.4-.4,1.2-.5c.6,0,1.1,0,1.7-.2.9-.2,1.4-1.2,1.6-3.1.2-1.4.3-5.4.3-11.8v-4.9c0-.2,0-.3-.3-.3h-21.2c-.2,0-.3,0-.3.3v4.9c0,6.3,0,10.2.3,11.9.2,1.8.9,2.8,2.2,3,1.1,0,2,.2,2.8.2s.9,0,.9.4-.4.6-1.1.6h-15.7c-.9,0-1.1-.2-1.1-.6s.4-.4,1.2-.5c.6,0,1.1,0,1.7-.2.9-.2,1.4-1.2,1.6-3.1.2-1.4.3-5.4.3-11.8v-9.8c0-6.6,0-10.5,0-11.8,0-1.8-.9-2.8-2.4-3.2-.5-.1-1.2-.2-2.2-.2s-.9-.2-.9-.5.4-.5,1.2-.5h15c.8,0,1.2.2,1.2.5s-.3.5-1,.5-1,0-1.6.2c-1.3.2-1.9,1.3-2.1,3.2,0,1.2,0,5.1,0,11.8v1.2c0,.3,0,.4.3.4l-.2.2ZM143.4,56.6v-9.8c0-6.6,0-10.5-.1-11.8-.1-1.8-.7-2.8-1.9-3.1-.6-.1-1.3-.2-1.9-.2s-1-.2-1-.6.4-.4,1.3-.4h14c.8,0,1.2.1,1.2.4s-.3.6-.8.6-1.1,0-1.7.2c-1.2.2-1.9,1.3-2,3.2,0,1.2-.1,5.1-.1,11.8v9.8c0,6.6,0,10.7.2,12.2.1,1.6.9,2.5,2.2,2.7,1.1,0,2,.2,2.8.2s.9,0,.9.4-.4.6-1.1.6h-15.6c-.9,0-1.1-.2-1.1-.6s.4-.4,1.2-.5c.6,0,1.1,0,1.7-.2.9-.2,1.4-1.1,1.6-2.7.2-1.6.3-5.7.3-12.1h0ZM175.6,46.8v9.8c0,4.2,0,6.9.2,8.3.1,2,.5,3.2,1,3.7.9.8,3.2,1.2,6.7,1.2s5.5-.5,6.5-1.6c.8-.9,1.3-2,1.4-3.3,0-.6.3-.8.6-.8s.4.3.4.9c0,2.2-.3,4.3-.8,6.4-.2.8-.7,1.2-1.3,1.4-.3,0-1,0-2.2,0-3,0-6.1,0-9.4-.2-3.3,0-5.5-.2-6.8-.2h-7c-.9,0-1.1-.2-1.1-.6s.4-.4,1.2-.5c.6,0,1.1,0,1.7-.2.9-.2,1.4-1.2,1.6-3.1.2-1.4.3-5.4.3-11.8v-9.8c0-6.6,0-10.5-.1-11.8,0-1.4-.5-2.3-1.2-2.8-.6-.4-1.6-.6-3-.6s-.9-.2-.9-.5.4-.5,1.2-.5h15.2c.8,0,1.2.2,1.2.5s-.3.5-1,.5-1.5,0-2.2.2c-1.3.2-1.9,1.3-2.1,3.2,0,1.2-.1,5.1-.1,11.8v.3ZM211.5,46.8v9.8c0,4.2,0,6.9.2,8.3.1,2,.5,3.2,1,3.7.9.8,3.2,1.2,6.7,1.2s5.5-.5,6.5-1.6c.8-.9,1.3-2,1.4-3.3,0-.6.3-.8.6-.8s.4.3.4.9c0,2.2-.3,4.3-.8,6.4-.2.8-.7,1.2-1.3,1.4-.3,0-1,0-2.2,0-3,0-6.1,0-9.4-.2-3.3,0-5.5-.2-6.8-.2h-7c-.9,0-1.1-.2-1.1-.6s.4-.4,1.2-.5c.6,0,1.1,0,1.7-.2.9-.2,1.4-1.2,1.6-3.1.2-1.4.3-5.4.3-11.8v-9.8c0-6.6,0-10.5-.1-11.8,0-1.4-.5-2.3-1.2-2.8-.6-.4-1.6-.6-3-.6s-.9-.2-.9-.5.4-.5,1.2-.5h15.2c.8,0,1.2.2,1.2.5s-.3.5-1,.5-1.5,0-2.2.2c-1.3.2-1.9,1.3-2.1,3.2,0,1.2-.1,5.1-.1,11.8v.3ZM240.2,56.6v-9.8c0-6.6,0-10.5-.1-11.8-.1-1.8-.7-2.8-1.9-3.1-.6-.1-1.3-.2-1.9-.2s-1-.2-1-.6.4-.4,1.3-.4h14c.8,0,1.2.1,1.2.4s-.3.6-.8.6-1.1,0-1.7.2c-1.2.2-1.9,1.3-2,3.2,0,1.2-.1,5.1-.1,11.8v9.8c0,6.6,0,10.7.2,12.2.1,1.6.9,2.5,2.2,2.7,1.1,0,2,.2,2.8.2s.9,0,.9.4-.4.6-1.1.6h-15.6c-.9,0-1.1-.2-1.1-.6s.4-.4,1.2-.5c.6,0,1.1,0,1.7-.2.9-.2,1.4-1.1,1.6-2.7.2-1.6.3-5.7.3-12.1h0ZM265.7,56.6v-9.8c0-6.6,0-10.5-.1-11.8-.1-1.8-.9-2.8-2.4-3.2-.5-.1-1.2-.2-2.2-.2s-.9-.2-.9-.5.4-.5,1.2-.5h16c4.7,0,8.1,1.1,10.3,3.2,1.9,1.7,2.8,3.9,2.8,6.6,0,3.9-1.3,7.1-3.9,9.7-2.6,2.5-5.8,3.8-9.8,3.8h-1.2c-.4,0-.7-.2-.7-.5s.5-.6,1.6-.6c1.7,0,3.4-.8,4.9-2.4,1.7-1.8,2.6-4.1,2.6-6.7s-1.1-6.4-3.3-8.3c-1.6-1.4-3.4-2.2-5.6-2.2s-1.7,0-2.1.2c-.4,0-.5.5-.5,1.1v22.2c0,6.3,0,10.2.3,11.9.2,1.8.9,2.8,2.2,3,1.1,0,2,.2,2.8.2s.9,0,.9.4-.4.6-1.1.6h-15.6c-.9,0-1.1-.2-1.1-.6s.4-.4,1.2-.5c.6,0,1.1,0,1.7-.2.9-.2,1.4-1.2,1.6-3.1.2-1.4.3-5.4.3-11.8h.1ZM306.5,73.5c-3.2,0-5.9-.5-8.1-1.4-.7-.3-1.1-.9-1.1-1.9,0-2,0-4.4.3-7.3,0-1,.3-1.4.7-1.4s.6.3.6.9.2,1.7.5,2.8c1.1,3.7,3.8,5.6,7.9,5.6s4.2-.7,5.6-2.1c1.2-1.2,1.8-2.6,1.8-4.3,0-3.1-1.8-6-5.4-8.9l-2.6-2c-5.5-4.3-8.2-8.7-8.2-13.2s1.2-5.6,3.6-7.5c2.4-2,5.5-2.9,9.3-2.9s4.9.3,7.4.9c.5.1.8.4.8.7,0,0,0,.6-.1,2,0,1.4-.1,3-.1,4.7s-.2,1.7-.6,1.7-.6-.3-.6-1c0-1.2-.5-2.4-1.4-3.7-1.4-1.8-3.5-2.7-6.1-2.7s-3.6.5-4.8,1.6c-1.2,1.1-1.8,2.4-1.8,4.1s.4,2.5,1.2,3.7c.8,1.2,2.4,2.6,4.6,4.3l1.6,1.2c3.3,2.5,5.7,4.8,7,7,1.4,2.1,2.1,4.5,2.1,7.2,0,4.2-1.7,7.4-5.2,9.7-2.3,1.5-5.3,2.3-8.8,2.3h0ZM347,56.6v-9.8c0-6.6,0-10.5-.1-11.8-.1-1.8-.9-2.8-2.4-3.2-.5-.1-1.2-.2-2.2-.2s-.9-.2-.9-.5.4-.5,1.2-.5h21.9c1,0,1.8-.2,2.4-.3.6-.1.9-.2.9-.2.2,0,.3.2.3.5s0,.4-.2,1c-.1.7-.2,1.6-.2,2.6s-.2,2.2-.3,3.7c0,.4-.3.6-.6.6s-.4-.2-.5-.6c0-.4-.1-.8-.1-1.2s-.1-.7-.2-1c-.4-1.1-1.7-1.7-3.7-2-1.3,0-3.9-.2-7.9-.2s-.4.2-.4.6v14c0,.4.1.6.4.6,5.1,0,8.1,0,8.9,0,.6,0,1.1,0,1.4-.2.6,0,1-.4,1.2-.7.4-.5.7-.7.9-.7.3,0,.4,0,.4.4s0,.4-.2,1.1c-.1.9-.2,1.8-.3,2.9-.1,2.1-.2,3.3-.2,3.7,0,.7-.2,1.1-.5,1.1s-.5-.2-.5-.6,0-1-.2-1.9c-.3-1.3-1.3-2-3.1-2.2-1,0-3.7-.2-7.9-.2s-.3.2-.3.6v13c0,2,.5,3.2,1.3,3.8.8.6,2.6.9,5.4.9s4.3-.2,5.2-.7c1.3-.6,2.1-2,2.5-4.1.1-.6.3-.8.6-.8s.4.3.4,1c0,2.3-.2,4.3-.7,6.2-.2.7-.4,1.1-.8,1.2-.3,0-1.1.2-2.2.2-3.2,0-6.4,0-9.6-.2-3.2,0-5.1-.2-5.8-.2h-7c-.9,0-1.1-.2-1.1-.6s.4-.4,1.2-.5c.6,0,1.1,0,1.7-.2.9-.2,1.4-1.2,1.6-3.1.2-1.4.3-5.4.3-11.8v.6ZM394.3,62.9v-4.6c0-2-.4-3.9-1.3-5.8-.2-.4-1.7-2.9-4.4-7.3s-4.5-7.3-5.4-8.7c-1.4-2-2.6-3.4-3.8-4.1-.9-.5-1.6-.7-2.3-.7s-.8-.2-.8-.5.4-.5,1.1-.5h12.9c.9,0,.8.2.8.5s-.4.4-1.2.6c-.5.1-.8.4-.8,1s.2,1,.7,1.9c.1.3,3.3,5.9,9.4,16.6,2.5-4.5,5.3-9.6,8.3-15.3.5-1.1.8-2.1.8-2.9s-.4-1.2-1.1-1.4c-.7-.2-1.1-.4-1.1-.6,0-.3.3-.5.9-.5h11.1c.7,0,1,.1,1,.4s-.4.6-1.1.6-1.5.2-2.4.7c-.9.4-1.9,1.4-3,2.7-.9,1.1-2.8,4-5.6,8.7-2.8,4.7-4.5,7.7-5,8.9-.6,1.3-.8,3.2-.8,5.5v4.6c0,3.3,0,5.4.3,6.3.2,1.4,1,2.1,2.2,2.3,1.1,0,2,.2,2.8.2s.9,0,.9.4-.4.6-1.2.6h-15.4c-.7,0-1.2-.2-1.2-.6s.4-.4,1.2-.5c.5,0,1.1,0,1.6-.2,1-.2,1.6-1.2,1.7-3.1.1-1.6.2-3.4.2-5.6v.4ZM431.7,56.6v-9.8c0-6.6,0-10.5-.1-11.8-.1-1.8-.9-2.8-2.4-3.2-.5-.1-1.2-.2-2.2-.2s-.9-.2-.9-.5.4-.5,1.2-.5h21.9c1,0,1.8-.2,2.4-.3.6-.1.9-.2.9-.2.2,0,.3.2.3.5s0,.4-.2,1c-.1.7-.2,1.6-.2,2.6s-.2,2.2-.3,3.7c0,.4-.3.6-.6.6s-.4-.2-.5-.6c0-.4-.1-.8-.1-1.2s-.1-.7-.2-1c-.4-1.1-1.7-1.7-3.7-2-1.3,0-3.9-.2-7.9-.2s-.4.2-.4.6v14c0,.4.1.6.4.6,5.1,0,8.1,0,8.9,0,.6,0,1.1,0,1.4-.2.6,0,1-.4,1.2-.7.4-.5.7-.7.9-.7.3,0,.4,0,.4.4s0,.4-.2,1.1c-.1.9-.2,1.8-.3,2.9-.1,2.1-.2,3.3-.2,3.7,0,.7-.2,1.1-.5,1.1s-.5-.2-.5-.6,0-1-.2-1.9c-.3-1.3-1.3-2-3.1-2.2-1,0-3.7-.2-7.9-.2s-.3.2-.3.6v13c0,2,.5,3.2,1.3,3.8.8.6,2.6.9,5.4.9s4.3-.2,5.2-.7c1.3-.6,2.1-2,2.5-4.1.1-.6.3-.8.6-.8s.4.3.4,1c0,2.3-.2,4.3-.7,6.2-.2.7-.4,1.1-.8,1.2-.3,0-1.1.2-2.2.2-3.2,0-6.4,0-9.6-.2-3.2,0-5.1-.2-5.8-.2h-7c-.9,0-1.1-.2-1.1-.6s.4-.4,1.2-.5c.6,0,1.1,0,1.7-.2.9-.2,1.4-1.2,1.6-3.1.2-1.4.3-5.4.3-11.8v.6ZM110.7,98.4v-7.8c0-.6-.3-1-.9-1.1h-.8c-.4,0-.3,0-.3-.2s0-.2.4-.2h5.1c1.6,0,2.8.4,3.5,1.1s.8,1.2.8,1.9c0,1.2-.7,2.4-2.1,3.5,1,.3,1.8.8,2.5,1.5s1.2,1.8,1.2,2.8-.4,2.2-1.3,3c-1,.9-2.4,1.4-4.1,1.4h-5.4c-.3,0-.4,0-.4-.2s0-.2.4-.2h.6c.3,0,.5-.4.6-1.1,0-.5,0-2,0-4.3h.1ZM113.1,90.2v5c0,0,0,.2,0,.2h.9c.7,0,1.1,0,1.4-.4.5-.5.8-1.2.8-2.1s-.2-1.5-.6-2.1c-.5-.7-1.1-1-1.9-1h-.8v.3h0ZM117.7,100.8c0-1.8-.7-3.1-2-4-.4-.3-1-.4-1.7-.5h-.9c-.4,0,0,0,0,0v4.8c0,.7,0,1.2,0,1.4,0,.3.3.4.6.6.4.2.9.2,1.5.2s1.1-.2,1.6-.5c.6-.5.9-1.1.9-2.1ZM124.9,98.4v-7.8c0-.6-.3-1-.9-1.1h-.8q-.3,0-.3-.2c0-.2,0-.2.4-.2h5.5c1.6,0,2.9.3,3.7.9.3.2.6.6.9,1,.3.5.5,1.1.5,1.7,0,1.6-.9,3.1-2.7,4.5,1.5,1.9,2.3,2.9,2.4,3,.8,1,1.4,1.7,2,2.3.7.8,1.5,1.2,2.3,1.4h.5c.2,0,.3,0,.3.2s-.1.2-.4.2h-1.9c-1,0-1.7,0-2.2-.4-.7-.3-1.6-1.3-2.8-3-.6-.8-1.2-1.7-2-2.8,0,0-.2,0-.4,0h-1.8c0,0-.2,0-.2.2v.3c0,2.3,0,3.7,0,4.3,0,.7.3,1,.8,1.1h1c.3,0,.2,0,.2.2s-.1.2-.4.2h-5.5c-.3,0-.4,0-.4-.2s0-.2.4-.2h.6c.3,0,.5-.4.6-1.1v-4.3h.5ZM127.3,90.3v6.1c0,.2,0,.3.2.4.4,0,.9.2,1.5.2s1.1,0,1.4-.3c.8-.6,1.2-1.6,1.2-3s-.4-2.2-1.1-2.9c-.6-.5-1.2-.8-2-.8s-1,0-1.1,0c0,0,0,0,0,.2h0Z"/>
        <path class="cls-1" d="M145.4,98.9h-4.5s-.1,0-.2.2l-1.1,2.9c-.2.5-.3.9-.3,1.2s.3.6.8.6h.3c.2,0,.3,0,.3.2s-.1.2-.3.2h-4.6q-.4,0-.4-.2t.2-.2h.6c.4,0,.8-.2,1-.6.2-.3.4-.7.7-1.2l5.1-12.6c.2-.5.4-.8.6-.8s.3.2.5.6c1.2,3.1,2.9,7.2,5,12.4.6,1.3,1.2,2.1,1.8,2.2h.8q.3,0,.3.2c0,.2,0,0-.2.2h-4.5c-.4,0-.6,0-.6-.2s0-.2.3-.2.3-.2.2-.5l-1.6-4.3s-.1,0-.2,0h0ZM141.3,97.9h3.7s.1,0,0,0l-1.8-5c0,0,0-.2-.1-.2s0,0-.1.2l-1.9,5h0c0,0,.2,0,.2,0Z"/>
        <path class="cls-1" d="M155.1,93l.2,8.5c0,1.3.3,2.1.7,2.2h.8c.4,0,.6,0,.6.2s-.2.2-.5.2h-4.7q-.4,0-.4-.2c0-.2.2-.2.5-.2h.7c.3,0,.4-.3.5-.6,0-.3.1-.9.1-1.9l.2-11.9c0-.5.1-.7.3-.7s.4.2.7.6c1.1,1.2,3.2,3.3,6.2,6.5,1.4,1.4,2.8,3,4.4,4.6h.1l-.2-9v-1c-.1-.4-.3-.7-.6-.8-.2,0-.6,0-1.1,0s-.3,0-.3-.2.2-.2.5-.2h4.4c.4,0,.5,0,.5.2s-.1.2-.4.2c-.7,0-1.1.2-1.2.7,0,.2-.1.6-.1,1.1l-.2,12.7c0,.4-.1.6-.3.6s-.4,0-.7-.4c-1.3-1.3-3.3-3.2-5.9-5.9-.9-.9-1.9-2-3.1-3.2s-1.1-1.3-1.7-1.9h0ZM173.2,98.4v-7.8c0-.6-.3-1-.9-1.1h-.8c-.4,0-.3,0-.3-.2s.1-.2.4-.2h6c1.8,0,3.2,0,4.1.3,1.6.3,3,1,3.9,2,1.3,1.4,2,3.1,2,5.1s-.7,4.1-2.2,5.6c-1.6,1.6-3.8,2.4-6.7,2.4s-1.3,0-2.3,0-1.7,0-2,0h-2.5c-.3,0-.4,0-.4-.2s.1-.2.4-.2h.6c.3,0,.5-.4.6-1.1v-4.3h0ZM175.8,94.5v6.6c0,.9.1,1.4.2,1.5.4.5,1.3.8,2.6.8,2,0,3.5-.5,4.6-1.4s1.7-2.6,1.7-5-.6-3.8-1.9-5c-1.4-1.3-3.3-2-5.7-2s-1.1,0-1.3,0c-.2,0-.3.2-.3.4v4h0ZM198,104.5c-2.7,0-4.7-.9-6.2-2.6-1.3-1.5-1.9-3.2-1.9-5.3s.6-3.8,1.9-5.2c1.5-1.8,3.7-2.7,6.4-2.7s4.5.7,5.9,2c1.5,1.4,2.2,3.2,2.2,5.5s-.8,4.3-2.3,5.9-3.6,2.4-6.1,2.4h.1ZM198.9,103.5c1.1,0,2.1-.4,2.9-1.1,1.2-1.1,1.8-2.9,1.8-5.4s-.6-4-1.7-5.4c-1.1-1.3-2.5-2-4.2-2s-2.5.4-3.3,1.3-1.6,2.8-1.6,5,.5,3.9,1.6,5.3c1.1,1.5,2.7,2.2,4.5,2.2h0ZM211.7,93l.2,8.5c0,1.3.3,2.1.7,2.2h.8c.4,0,.6,0,.6.2s-.2.2-.5.2h-4.7q-.4,0-.4-.2c0-.2.2-.2.5-.2h.7c.3,0,.4-.3.5-.6,0-.3.1-.9.1-1.9l.2-11.9c0-.5,0-.7.3-.7s.4.2.7.6c1.1,1.2,3.2,3.3,6.2,6.5,1.4,1.4,2.8,3,4.4,4.6l-.2-9v-1c-.1-.4-.3-.7-.6-.8-.2,0-.6,0-1.1,0s-.3,0-.3-.2.2-.2.5-.2h4.4c.4,0,.5,0,.5.2s-.1.2-.4.2c-.7,0-1.1.2-1.2.7,0,.2-.1.6-.1,1.1l-.2,12.7c0,.4,0,.6-.3.6s-.4,0-.7-.4c-1.3-1.3-3.3-3.2-5.9-5.9-.9-.9-1.9-2-3.1-3.2s-1.1-1.3-1.7-1.9h0ZM235.9,98.4v-7.8c0-.6-.3-1-.9-1.1h-.8c-.4,0-.3,0-.3-.2s.1-.2.4-.2h5.8c1.7,0,2.9.4,3.7,1.1.7.6,1,1.4,1,2.4s-.5,2.6-1.4,3.5-2.1,1.4-3.6,1.4h-.4q-.2,0-.2-.2c0,0,.2-.2.6-.2.6,0,1.2-.3,1.8-.9.6-.7.9-1.5.9-2.4s-.4-2.3-1.2-3c-.6-.5-1.2-.8-2-.8h-.8c-.1,0-.2.2-.2.4v12.4c0,.7.3,1,.8,1.1h1q.3,0,.3.2c0,.2-.1.2-.4.2h-5.7c-.3,0-.4,0-.4-.2s.1-.2.4-.2h.6c.3,0,.5-.4.6-1.1v-4.3h.4ZM251.7,95.4h7.7s.1,0,.1,0v-4.7c0-.6-.3-1-.9-1.1h-.8q-.3,0-.3-.2c0-.2.1-.2.4-.2h5.4c.3,0,.4,0,.4.2s-.1.2-.4.2h-.6c-.5,0-.7.5-.7,1.1v12.1c0,.7.3,1,.8,1.1h1q.3,0,.3.2c0,.2-.1.2-.4.2h-5.7c-.3,0-.4,0-.4-.2s.1-.2.4-.2h.6c.3,0,.5-.4.6-1.1,0-.5.1-2,.1-4.3v-1.8s0,0-.1,0h-7.7s-.1,0-.1,0v1.8c0,2.3,0,3.7.1,4.3,0,.7.3,1,.8,1.1h1q.3,0,.3.2c0,.2-.1.2-.4.2h-5.7c-.3,0-.4,0-.4-.2s.1-.2.4-.2h.6c.3,0,.5-.4.6-1.1v-12.1c0-.6-.3-1-.9-1.1h-.8c-.4,0-.3,0-.3-.2s.1-.2.4-.2h5.5c.3,0,.4,0,.4.2s-.1.2-.4.2h-.6c-.5,0-.7.5-.7,1.1v4.7s0,0,.1,0h.3ZM268.6,98.4v-7.8c0-.6-.3-1-.7-1.1h-.7c-.2,0-.4,0-.4-.2s.2-.2.5-.2h5c.3,0,.4,0,.4.2s0,.2-.3.2h-.6c-.5,0-.7.5-.7,1.1v12.2c0,.6.3.9.8,1h1q.3,0,.3.2c0,.2-.1.2-.4.2h-5.7c-.3,0-.4,0-.4-.2s.1-.2.4-.2h.6c.3,0,.5-.4.6-1v-4.4h.3ZM280.2,94.8v6.5c0,.7.2,1.2.4,1.3.3.3,1.1.4,2.4.4s2-.2,2.4-.6c.3-.3.5-.7.5-1.2s.1-.3.2-.3.2,0,.2.3c0,.8-.1,1.6-.3,2.3,0,.3-.2.4-.5.5h-9.2c-.3,0-.4,0-.4-.2s.1-.2.4-.2h.6c.3,0,.5-.4.6-1.1v-12.1c0-.5-.2-.8-.4-1-.2,0-.6-.2-1.1-.2s-.3,0-.3-.2.1-.2.4-.2h5.5c.3,0,.4,0,.4.2s-.1.2-.4.2h-.8c-.5,0-.7.5-.7,1.1v4.5ZM292.4,94.8v6.5c0,.7.2,1.2.4,1.3.3.3,1.1.4,2.4.4s2-.2,2.4-.6c.3-.3.5-.7.5-1.2s.1-.3.2-.3.2,0,.2.3c0,.8-.1,1.6-.3,2.3,0,.3-.2.4-.5.5h-9.2c-.3,0-.4,0-.4-.2s.1-.2.4-.2h.6c.3,0,.5-.4.6-1.1v-12.1c0-.5-.2-.8-.4-1-.2,0-.6-.2-1.1-.2s-.3,0-.3-.2.1-.2.4-.2h5.5c.3,0,.4,0,.4.2s-.1.2-.4.2h-.8c-.5,0-.7.5-.7,1.1v4.5ZM302.1,98.4v-7.8c0-.6-.3-1-.7-1.1h-.7c-.2,0-.4,0-.4-.2s.2-.2.5-.2h5c.3,0,.4,0,.4.2s0,.2-.3.2h-.6c-.5,0-.7.5-.7,1.1v12.2c0,.6.3.9.8,1h1q.3,0,.3.2c0,.2-.1.2-.4.2h-5.7c-.3,0-.4,0-.4-.2s.1-.2.4-.2h.6c.3,0,.5-.4.6-1v-4.4h.3ZM311.2,98.4v-7.8c0-.6-.3-1-.9-1.1h-.8c-.4,0-.3,0-.3-.2s.1-.2.4-.2h5.8c1.7,0,2.9.4,3.7,1.1.7.6,1,1.4,1,2.4s-.5,2.6-1.4,3.5-2.1,1.4-3.6,1.4h-.4q-.2,0-.2-.2c0,0,.2-.2.6-.2.6,0,1.2-.3,1.8-.9.6-.7.9-1.5.9-2.4s-.4-2.3-1.2-3c-.6-.5-1.2-.8-2-.8h-.8c-.1,0-.2.2-.2.4v12.4c0,.7.3,1,.8,1.1h1q.3,0,.3.2c0,.2-.1.2-.4.2h-5.7c-.3,0-.4,0-.4-.2s.1-.2.4-.2h.6c.3,0,.5-.4.6-1.1v-4.3h.4ZM326.2,104.5c-1.2,0-2.1-.2-2.9-.5-.3,0-.4-.3-.4-.7v-2.6c0-.3.1-.5.2-.5s.2,0,.2.3,0,.6.2,1c.4,1.4,1.4,2,2.9,2s1.5-.2,2-.7c.4-.4.7-1,.7-1.5,0-1.1-.7-2.2-2-3.2l-.9-.7c-2-1.6-3-3.1-3-4.8s.4-2,1.3-2.7,2-1.1,3.4-1.1,1.8,0,2.7.3c.2,0,.3,0,.3.2v2.4q0,.6-.2.6c-.2,0-.2,0-.2-.4s-.2-.9-.5-1.3c-.5-.7-1.3-1-2.2-1s-1.3.2-1.8.6c-.4.4-.6.9-.6,1.5s.2.9.5,1.3.9.9,1.7,1.6l.6.4c1.2.9,2.1,1.8,2.6,2.5.5.8.7,1.6.7,2.6,0,1.5-.6,2.7-1.9,3.5-.8.6-1.9.8-3.2.8h-.2ZM334,102.7c0-.3.2-.7.5-.9s.7-.4,1-.4.3.2.6.6c.3.4.4.7.4,1s0,.6-.3,1c-.5,1.1-1,2-1.6,2.7-.2.2-.3.2-.3.2-.1,0-.2,0-.2-.2l.2-.3c.4-.7.6-1.3.6-1.8s-.1-.9-.4-1.2c-.3-.3-.4-.5-.4-.6h-.1ZM345.9,102.2l2-13.1c0-.3.2-.5.3-.5s.3.2.5.6l5.5,11.4,5.5-11.5c.1-.3.3-.5.4-.5s.3.2.4.6l1.8,12.4c0,.7.2,1.2.3,1.4.1.3.3.5.6.6.4,0,.9.2,1.2.2s.3,0,.3,0-.2.2-.5.2c-1.7,0-3.1,0-4.1,0-.4,0-.6,0-.6-.2s0-.2.2-.2.2-.3.1-.9l-1.2-8.9-4.4,9.2c-.4.8-.6,1.1-.7,1.1s-.4-.3-.7-1c-1.3-2.4-2-4-2.3-4.6-.5-1-1.2-2.5-2.1-4.5l-1,8v.9c0,.3.2.6.6.6s.6,0,.8,0,.3,0,.3,0-.2.2-.5.2h-4.1c-.2,0-.4,0-.4-.2s.1,0,.3,0h.6c.4,0,.7-.6.8-1.6v.2ZM367.3,104.1c-.4,0-.7,0-.9-.4-.2-.2-.3-.5-.3-.8s0-.6.3-.8c.2-.3.6-.4.9-.4s.6,0,.9.3c.2.2.4.5.4.8s-.1.7-.3.9c-.2.2-.5.4-.9.4h-.1ZM373.2,98.4v-7.8c0-.6-.3-1-.9-1.1h-.8c-.4,0-.3,0-.3-.2s.1-.2.4-.2h6c1.8,0,3.2,0,4.1.3,1.6.3,3,1,3.9,2,1.3,1.4,2,3.1,2,5.1s-.7,4.1-2.2,5.6c-1.6,1.6-3.8,2.4-6.7,2.4s-1.3,0-2.3,0c-1,0-1.7,0-2,0h-2.5c-.3,0-.4,0-.4-.2s.1-.2.4-.2h.6c.3,0,.5-.4.6-1.1v-4.3h0ZM375.7,94.5v6.6c0,.9.1,1.4.2,1.5.4.5,1.3.8,2.6.8,2,0,3.5-.5,4.6-1.4s1.7-2.6,1.7-5-.6-3.8-1.9-5c-1.4-1.3-3.3-2-5.7-2s-1.1,0-1.3,0c-.2,0-.3.2-.3.4v4h0ZM391.2,104.1c-.4,0-.7,0-.9-.4-.2-.2-.3-.5-.3-.8s0-.6.3-.8c.2-.3.6-.4.9-.4s.6,0,.9.3c.2.2.4.5.4.8s-.1.7-.3.9c-.2.2-.5.4-.9.4h-.1Z"/>
      </g>
    </g>
  </g>
</svg>